<svg width="682" height="305" viewBox="0 0 682 305" fill="none" xmlns="http://www.w3.org/2000/svg">
<path fill-rule="evenodd" clip-rule="evenodd" d="M408.189 75.2253C375.604 43.6181 326.839 38.8301 288.931 60.3224L254.266 26.6973C311.281 -13.0678 389.884 -8.55634 441.188 41.2074C492.49 90.9714 499.393 169.399 461.379 227.598L426.716 193.974C447.044 155.428 440.775 106.833 408.189 75.2253Z" fill="#FF6F5E"/>
<path fill-rule="evenodd" clip-rule="evenodd" d="M273.359 214.237C305.944 245.844 354.709 250.631 392.617 229.14L427.283 262.764C370.267 302.531 291.663 298.018 240.36 248.255C189.056 198.492 182.155 120.063 220.168 61.8648L254.833 95.4899C234.504 134.034 240.773 182.63 273.359 214.237Z" fill="#FF6F5E"/>
<path fill-rule="evenodd" clip-rule="evenodd" d="M384.358 100.944C360.145 77.2563 321.483 77.8447 298.003 102.259C274.522 126.673 275.116 165.667 299.328 189.356C323.54 213.044 362.203 212.456 385.683 188.04C409.162 163.627 408.57 124.633 384.358 100.944ZM320.627 166.787C332.901 178.796 352.479 178.521 364.354 166.173C376.23 153.825 375.907 134.08 363.632 122.071C351.357 110.062 331.78 110.337 319.904 122.685C308.029 135.033 308.352 154.778 320.627 166.787Z" fill="#2C3D63"/>
<path d="M177 212H153.75V242H96.5V212H5.75V174.5L80 67H140.5L74.5 166.25H98.25V139.5H153.75V166.25H177V212Z" fill="#2C3D63"/>
<path d="M681 212H657.75V242H600.5V212H509.75V174.5L584 67H644.5L578.5 166.25H602.25V139.5H657.75V166.25H681V212Z" fill="#2C3D63"/>
</svg>
