<svg width="66" height="66" viewBox="0 0 66 66" fill="none" xmlns="http://www.w3.org/2000/svg">
<path d="M30.5493 0C31.9975 0 33.4457 0 34.8939 0C35.6924 0.0976122 36.4941 0.176022 37.2894 0.297637C44.9607 1.45778 51.4831 4.831 56.759 10.5277C61.0827 15.1971 63.8159 20.6826 64.92 26.9586C65.128 28.1443 65.2625 29.3429 65.4321 30.5366C65.4321 31.9848 65.4321 33.433 65.4321 34.8811C65.3345 35.6572 65.2529 36.4365 65.1376 37.211C63.9999 44.8152 60.7083 51.3264 55.0644 56.5606C47.7963 63.3007 39.1456 66.1362 29.2996 65.2513C25.1791 64.8801 21.2778 63.6527 17.6037 61.7277C5.31901 55.2853 -1.60985 41.9908 0.319987 28.1619C1.39372 20.4762 4.83575 13.9601 10.5309 8.68108C15.2146 4.33974 20.7209 1.5986 27.0257 0.504063C28.1954 0.302438 29.3748 0.166421 30.5493 0ZM51.3423 11.0574C40.6178 1.5746 22.806 1.24815 11.6238 13.4113C0.708834 25.2847 1.67535 44.0631 14.4481 54.6964C26.464 64.6993 42.6612 62.3902 51.2847 54.3652C49.3821 52.4641 47.4778 50.5599 45.5688 48.6525C36.5917 55.9014 23.9261 53.9987 17.1221 45.9337C11.0429 38.728 10.366 27.7939 16.9172 19.7417C19.9608 16.002 23.9069 13.5969 28.6419 12.6752C34.9195 11.4526 40.6178 12.88 45.6024 16.8021C47.5259 14.8739 49.4189 12.9808 51.3423 11.0574ZM54.1699 14.0033C54.0275 14.2306 53.9251 14.4834 53.749 14.6626C51.1727 17.2549 48.5852 19.8377 46.0009 22.422C44.119 24.3038 42.2452 26.1937 40.3474 28.0611C39.9969 28.4051 39.9073 28.6564 40.1377 29.1428C41.2595 31.5079 41.2595 33.9082 40.1393 36.2733C39.9089 36.7582 39.9969 37.0094 40.3458 37.355C43.0629 40.0466 45.7624 42.7573 48.4668 45.4617C50.243 47.2379 52.0192 49.0157 53.797 50.7903C53.9715 50.9647 54.1571 51.1296 54.3395 51.2992C63.9599 40.3522 63.1438 23.8622 54.1699 14.0033ZM42.6484 19.7609C35.9452 14.4002 25.7535 15.5395 20.1625 22.2588C14.4385 29.1364 15.2658 39.1889 22.1707 45.1512C28.6691 50.7615 37.7614 49.8046 42.5924 45.6201C40.6722 43.6998 38.7504 41.778 36.8173 39.845C32.6056 42.082 28.4995 40.4882 26.4064 37.9247C24.0429 35.03 23.9005 30.9479 26.04 27.9763C27.1329 26.4593 28.5667 25.4128 30.3605 24.8735C32.636 24.1886 34.8043 24.5087 36.7933 25.5808C38.7664 23.6173 40.6946 21.7035 42.6484 19.7609ZM36.7773 32.6777C36.7485 30.4838 34.8331 28.6068 32.6728 28.6532C30.4853 28.6996 28.6659 30.5414 28.6675 32.7097C28.6675 34.9019 30.5525 36.779 32.7384 36.7646C34.9339 36.7502 36.8061 34.8571 36.7773 32.6777Z" fill="#FF6F5E"/>
</svg>
