<svg width="67" height="66" viewBox="0 0 67 66" fill="none" xmlns="http://www.w3.org/2000/svg">
<path d="M13.3679 4.13672C13.3679 5.65398 13.3679 6.97959 13.3679 8.28922C13.3838 10.5252 14.965 11.9945 17.3447 11.9786C19.6765 11.9626 21.2097 10.4932 21.2257 8.27325C21.2257 6.96361 21.2257 5.63801 21.2257 4.28046C29.3869 4.28046 37.4684 4.28046 45.6616 4.28046C45.6616 5.52621 45.7414 6.74002 45.6456 7.93786C45.4539 10.3655 47.5621 12.841 51.0438 11.8029C52.5292 11.3557 53.5034 9.98216 53.5194 8.41699C53.5353 7.07541 53.5194 5.73384 53.5194 4.4242C53.5992 4.36032 53.6312 4.29643 53.6631 4.29643C56.0268 4.23255 58.3906 3.96104 60.6904 4.77557C64.4117 6.0852 66.8713 9.50303 66.8872 13.4319C66.9032 23.8451 66.9032 34.2583 66.8872 44.6556C66.8872 46.8915 66.2005 48.9199 64.795 50.6767C61.8563 54.382 58.9336 58.1033 55.963 61.7926C54.0145 64.2043 51.4431 65.4021 48.3447 65.4021C35.3602 65.4021 22.3916 65.4181 9.40702 65.4021C4.07265 65.3861 0 61.3135 0 55.9791C0 41.8446 0 27.7261 0 13.6076C0 9.05584 2.98661 5.28664 7.45853 4.45614C9.3591 4.10478 11.3555 4.23255 13.3679 4.13672ZM2.31582 22.6792C2.31582 22.9827 2.31582 23.2382 2.31582 23.4778C2.31582 34.3382 2.31582 45.1986 2.31582 56.043C2.31582 56.4583 2.33179 56.8895 2.39567 57.3047C2.89078 60.4351 5.68573 63.1342 9.63061 63.1182C22.4555 63.0543 35.2803 63.1023 48.1051 63.0863C48.9356 63.0863 49.7821 62.8946 50.6126 62.7828C51.2355 62.703 51.4431 62.3676 51.4272 61.7128C51.3952 58.3588 51.4112 54.9889 51.4112 51.635C51.4112 48.5046 53.4076 46.5082 56.5539 46.5082C58.6142 46.5082 60.6904 46.5082 62.7507 46.5082C64.5555 46.5082 64.5554 46.5082 64.5554 44.6715C64.5554 37.6282 64.5554 30.569 64.5554 23.5257C64.5554 23.2542 64.5554 22.9987 64.5554 22.6792C43.7929 22.6792 23.1103 22.6792 2.31582 22.6792Z" fill="#FF6F5E"/>
<path d="M18.7498 4.77538C18.7498 5.87739 18.7658 6.96343 18.7498 8.06544C18.7338 9.02371 18.2707 9.48687 17.3284 9.50284C16.3541 9.51882 15.843 9.03968 15.843 8.06544C15.8271 5.84545 15.8271 3.64143 15.843 1.42143C15.859 0.495106 16.3861 0 17.2964 0C18.2068 0 18.7338 0.495106 18.7338 1.42143C18.7658 2.53942 18.7498 3.6574 18.7498 4.77538Z" fill="#FF6F5E"/>
<path d="M51.0434 4.75941C51.0434 5.86142 51.0594 6.94746 51.0434 8.04947C51.0274 9.03968 50.5483 9.51882 49.574 9.50284C48.6477 9.48687 48.1526 9.02371 48.1526 8.06544C48.1366 5.84545 48.1366 3.64143 48.1526 1.42143C48.1526 0.495106 48.6797 0 49.59 0C50.5163 0 51.0274 0.479135 51.0434 1.40546C51.0434 2.52344 51.0434 3.64143 51.0434 4.75941Z" fill="#FF6F5E"/>
<path d="M29.6346 39.4033C29.6346 40.5053 29.6505 41.5914 29.6346 42.6934C29.6186 43.6516 29.1554 44.1148 28.2131 44.1308C27.2389 44.1467 26.7278 43.6676 26.7278 42.6934C26.7118 40.4734 26.7118 38.2694 26.7278 36.0494C26.7278 35.139 27.2708 34.6279 28.1812 34.6279C29.0915 34.6279 29.6186 35.123 29.6186 36.0494C29.6505 37.1673 29.6346 38.2853 29.6346 39.4033Z" fill="#FF6F5E"/>
<path d="M31.4876 44.1624C30.3856 44.1624 29.2996 44.1784 28.1976 44.1624C27.2393 44.1464 26.7761 43.6832 26.7602 42.7409C26.7442 41.7667 27.2233 41.2556 28.1976 41.2556C30.4175 41.2397 32.6216 41.2397 34.8416 41.2556C35.7519 41.2556 36.263 41.7987 36.263 42.709C36.263 43.6194 35.7679 44.1464 34.8416 44.1464C33.7236 44.1624 32.6056 44.1624 31.4876 44.1624Z" fill="#FF6F5E"/>
<path fill-rule="evenodd" clip-rule="evenodd" d="M29.4192 30.2296C23.0926 30.2296 17.964 35.3583 17.964 41.6848C17.964 48.0113 23.0926 53.14 29.4192 53.14C35.7457 53.14 40.8743 48.0113 40.8743 41.6848C40.8743 35.3583 35.7457 30.2296 29.4192 30.2296ZM15.4482 41.6848C15.4482 33.9689 21.7032 27.7139 29.4192 27.7139C37.1351 27.7139 43.3901 33.9689 43.3901 41.6848C43.3901 49.4007 37.1351 55.6557 29.4192 55.6557C21.7032 55.6557 15.4482 49.4007 15.4482 41.6848Z" fill="#FF6F5E"/>
</svg>
