<svg width="66" height="66" viewBox="0 0 66 66" fill="none" xmlns="http://www.w3.org/2000/svg">
<path d="M65.3857 30.7138C65.3857 32.0734 65.3857 33.433 65.3857 34.7926C65.3521 34.9772 65.285 35.1619 65.285 35.3465C65.1003 37.7636 64.6639 40.1471 63.9086 42.4467C61.374 50.2686 56.6406 56.3784 49.6243 60.6922C45.898 62.9918 41.8528 64.4521 37.5054 65.0564C36.6661 65.1739 35.8436 65.2914 35.0044 65.4089C33.4769 65.4089 31.9495 65.4089 30.4052 65.4089C29.3813 65.2746 28.3574 65.1571 27.3335 64.9725C18.4374 63.3611 11.2365 58.9465 6.03305 51.5275C0.460353 43.6048 -1.25174 34.7926 0.89677 25.3425C2.50815 18.2088 6.18412 12.25 11.8407 7.61727C20.1159 0.836026 29.5995 -1.44677 40.0232 0.886381C52.8135 3.73987 62.549 14.1132 64.8485 26.9707C65.0835 28.2463 65.2178 29.4884 65.3857 30.7138ZM31.3116 22.0526C26.6453 21.9183 22.1469 21.2301 17.7492 19.9376C16.5742 24.0165 15.9531 30.4788 16.2049 32.4594C21.2237 32.4594 26.2593 32.4594 31.3116 32.4594C31.3116 28.9849 31.3116 25.5439 31.3116 22.0526ZM34.1316 32.4426C39.2007 32.4426 44.1691 32.4426 49.1543 32.4426C49.3558 29.7402 48.3151 21.8176 47.543 20.0887C45.3105 20.5587 43.1117 21.1126 40.8792 21.4651C38.6468 21.8008 36.3808 21.9351 34.1316 22.1533C34.1316 25.5607 34.1316 28.9849 34.1316 32.4426ZM57.3288 15.7245C54.9956 16.8324 52.7967 17.9066 50.5643 18.9305C50.1615 19.1152 50.1615 19.3334 50.2454 19.6691C51.1014 22.9422 51.605 26.2657 51.7728 29.6563C51.8232 30.5795 51.7728 31.5027 51.7728 32.4594C55.4992 32.4594 59.0576 32.4594 62.6497 32.4594C62.5658 26.2489 60.7362 20.6762 57.3288 15.7245ZM2.77672 32.4426C6.30162 32.4426 9.80973 32.4426 13.3682 32.4426C13.4018 32.1237 13.4521 31.8048 13.4521 31.4859C13.4857 27.5246 14.0228 23.6136 15.0299 19.7866C15.1978 19.1487 14.9796 18.9809 14.476 18.7291C12.5122 17.8059 10.5986 16.7988 8.66834 15.8252C8.53406 15.7581 8.38299 15.6742 8.21514 15.5735C4.69024 20.6762 2.87743 26.2657 2.77672 32.4426ZM31.2948 62.6225C31.2948 57.1337 31.2948 51.6618 31.2948 46.1898C26.9307 46.324 22.684 46.9115 18.5381 48.1536C18.5381 48.2543 18.5381 48.3551 18.5548 48.4222C19.8977 52.2996 21.6937 55.942 24.5975 58.9298C26.4439 60.8097 28.5924 62.1861 31.2948 62.6225ZM31.3116 2.90061C29.2974 3.21953 27.6021 4.05879 26.0746 5.26733C23.3554 7.43263 21.5091 10.2693 20.0823 13.3914C19.4948 14.6671 18.9913 15.9931 18.4374 17.3527C22.7344 18.6284 26.981 19.2327 31.3284 19.3334C31.3116 13.8278 31.3116 8.38939 31.3116 2.90061ZM34.1316 62.6057C36.4815 62.2029 38.3782 61.0951 40.04 59.5508C43.0781 56.7477 44.958 53.1892 46.3848 49.379C46.5359 48.9761 46.6701 48.5565 46.8212 48.1201C42.6417 46.8947 38.4454 46.3073 34.1316 46.1898C34.1316 51.6618 34.1316 57.1002 34.1316 62.6057ZM34.1483 2.93418C34.1483 8.42296 34.1483 13.8782 34.1483 19.3334C38.4621 19.1991 42.6752 18.6284 46.8883 17.3695C46.3344 16.0099 45.8309 14.6839 45.2434 13.3914C43.7663 10.2022 41.8695 7.29835 39.0328 5.11626C37.5893 4.02522 35.9779 3.21953 34.1483 2.93418ZM16.1713 35.2122C16.3392 38.7539 16.8092 42.1781 17.7324 45.6191C22.1972 44.2762 26.7125 43.6216 31.3116 43.4873C31.3116 40.701 31.3116 37.965 31.3116 35.229C26.2425 35.2122 21.2405 35.2122 16.1713 35.2122ZM49.0872 35.2122C44.0684 35.2122 39.1 35.2122 34.1316 35.2122C34.1316 37.9818 34.1316 40.701 34.1316 43.4706C38.7139 43.5881 43.1788 44.2762 47.5765 45.5519C48.4662 42.1109 48.9697 38.7203 49.0872 35.2122ZM62.5658 35.229C58.9905 35.229 55.432 35.229 51.8736 35.229C51.8568 35.3633 51.84 35.4472 51.84 35.5311C51.6218 38.9889 51.1686 42.4131 50.279 45.7701C50.1447 46.2737 50.2622 46.4415 50.7154 46.6597C52.78 47.6501 54.811 48.7076 56.842 49.7314C56.9595 49.7986 57.0938 49.8489 57.2281 49.9161C60.3333 45.4848 62.1125 40.6003 62.5658 35.229ZM2.87743 35.2122C3.34742 40.6171 5.12665 45.5016 8.13121 49.7986C10.4308 48.7075 12.6632 47.6501 14.8789 46.559C14.9964 46.4919 15.0803 46.1562 15.0467 45.9548C14.6942 44.0748 14.2746 42.2284 13.9725 40.3485C13.7039 38.6532 13.5696 36.9411 13.385 35.2122C9.89366 35.2122 6.40233 35.2122 2.87743 35.2122ZM55.7174 13.5928C51.9743 9.24543 47.6101 6.2073 42.3563 4.46164C45.6798 7.9194 47.7947 12.0821 49.4061 16.6813C51.5043 15.6574 53.5521 14.6503 55.7174 13.5928ZM55.7006 51.9303C53.5689 50.8728 51.5043 49.8657 49.4061 48.825C47.7947 53.4578 45.663 57.6037 42.3395 61.0615C47.5933 59.3158 51.9743 56.2777 55.7006 51.9303ZM15.9028 16.6309C17.5142 12.0486 19.6123 7.9194 22.919 4.49521C17.7324 6.29123 13.4018 9.27901 9.74259 13.576C11.8407 14.6167 13.8382 15.607 15.9028 16.6309ZM9.75938 51.9303C13.5696 56.6134 19.3102 60.0544 22.9526 60.9944C19.5955 57.5869 17.5142 53.4746 15.9028 48.8922C13.8382 49.8993 11.8407 50.8896 9.75938 51.9303Z" fill="#FF6F5E"/>
</svg>
