<svg width="96" height="66" viewBox="0 0 96 66" fill="none" xmlns="http://www.w3.org/2000/svg">
<path d="M0 28.1745C0.465899 27.4068 1.15144 27.1805 2.03664 27.1894C5.87476 27.2227 9.71288 27.2027 13.7263 27.2027C13.4933 26.9565 13.3757 26.8034 13.2315 26.6858C8.41724 22.7745 6.42053 17.7161 7.75389 11.6816C9.09612 5.60721 13.0762 1.80458 19.1329 0.371391C26.6871 -1.41456 34.441 3.41526 36.5087 11.1093C36.7084 11.848 36.9835 12.0677 37.7445 12.0655C45.0569 12.0344 52.3715 12.0322 59.6861 12.0521C63.0694 12.061 65.7139 13.4676 67.1826 16.5714C67.7195 17.7051 67.9414 19.0539 68.0146 20.323C68.1455 22.5704 68.0501 24.8311 68.0501 27.2005C68.4694 27.2005 68.8 27.2005 69.1305 27.2005C72.7557 27.2005 76.383 27.2271 80.0082 27.1939C84.534 27.1517 87.9972 29.0197 90.4465 32.8157C91.8553 35.001 93.3129 37.1552 94.6951 39.3583C94.9879 39.8264 95.192 40.4387 95.1942 40.9845C95.2297 46.3445 95.2187 51.7068 95.2142 57.0691C95.2142 58.4313 94.6795 58.9726 93.3018 58.9904C91.9995 59.0081 90.6994 59.0125 89.3971 58.9859C88.8713 58.9748 88.6029 59.0946 88.4099 59.6626C87.1897 63.2145 84.1169 65.4087 80.4763 65.4087C76.8423 65.4064 73.805 63.2212 72.5471 59.6537C72.3763 59.1656 72.1655 58.9837 71.6353 58.9837C62.4305 58.9992 53.2278 58.9992 44.023 58.9837C43.4595 58.9837 43.2443 59.1701 43.0579 59.7069C41.8466 63.2189 38.7184 65.4331 35.0888 65.4087C31.4903 65.3843 28.4065 63.1834 27.2196 59.7003C27.0088 59.0835 26.7071 58.9859 26.1525 58.9881C22.2167 59.0037 18.281 58.997 14.3453 58.997C12.5282 58.997 12.1489 58.5555 12.0779 56.7629C11.947 53.4151 13.2426 50.8881 16.16 49.1998C16.3553 49.0867 16.5572 48.7894 16.5616 48.5742C16.5927 46.5331 16.5793 44.492 16.5793 42.3223C16.1867 42.3223 15.8583 42.3223 15.53 42.3223C11.0374 42.3223 6.54255 42.3045 2.04996 42.3378C1.1714 42.3444 0.481429 42.1359 0.00221857 41.3816C0.00221857 41.0089 0.00221857 40.6384 0.00221857 40.2657C0.470336 39.498 1.15809 39.274 2.03886 39.2806C6.53368 39.3095 11.0263 39.2939 15.5211 39.2939C15.8517 39.2939 16.18 39.2939 16.5261 39.2939C16.5261 38.2468 16.5261 37.3305 16.5261 36.3233C16.1401 36.3233 15.8073 36.3233 15.4745 36.3233C13.9237 36.3233 12.3752 36.3388 10.8244 36.3166C9.69513 36.3011 9.04731 35.6777 9.07837 34.7104C9.10721 33.7874 9.74616 33.2328 10.8444 33.2239C12.7257 33.2106 14.607 33.2195 16.5128 33.2195C16.5128 32.1768 16.5128 31.2405 16.5128 30.2333C16.1112 30.2333 15.7762 30.2333 15.439 30.2333C10.9752 30.2333 6.51149 30.2155 2.04996 30.2488C1.1714 30.2555 0.481429 30.0447 0 29.2926C0 28.9177 0 28.5472 0 28.1745ZM19.7408 39.2939C20.7303 39.2939 21.6266 39.274 22.5207 39.2984C23.5656 39.3272 24.1602 39.8774 24.1735 40.7804C24.1868 41.7299 23.5767 42.2979 22.4874 42.3156C21.5711 42.3289 20.6526 42.3178 19.7608 42.3178C19.7608 44.3966 19.7608 46.3356 19.7608 48.2569C34.8448 48.2569 49.8578 48.2569 64.9042 48.2569C64.9197 48.004 64.9397 47.8243 64.9397 47.6424C64.9397 38.4376 64.953 29.2327 64.9308 20.0279C64.9241 17.1903 62.8054 15.1537 59.9501 15.1515C52.6044 15.1448 45.2588 15.1493 37.9131 15.1493C37.6202 15.1493 37.3274 15.1493 37.039 15.1493C36.7905 20.212 34.6141 24.1167 30.5363 27.205C31.599 27.205 32.3733 27.205 33.1476 27.205C35.1931 27.2072 37.2386 27.1894 39.2842 27.2227C40.2093 27.236 40.8349 27.8994 40.8261 28.7358C40.8172 29.5699 40.1716 30.1845 39.2531 30.2266C38.9758 30.24 38.6962 30.2333 38.4167 30.2333C32.5286 30.2333 26.6383 30.2333 20.7502 30.2333C20.4219 30.2333 20.0913 30.2333 19.7652 30.2333C19.7652 31.296 19.7652 32.2344 19.7652 33.2195C23.153 33.2195 26.4675 33.2173 29.7798 33.2217C31.0156 33.2239 31.7965 33.8496 31.7721 34.8013C31.7477 35.7287 31.0022 36.3188 29.8064 36.321C27.2351 36.3299 24.6616 36.3233 22.0903 36.3233C21.3226 36.3233 20.5572 36.3233 19.743 36.3233C19.7408 37.3305 19.7408 38.2468 19.7408 39.2939ZM33.9707 14.8475C33.9308 8.3782 28.6239 3.0847 22.1834 3.09357C15.6697 3.10023 10.3629 8.49356 10.4139 15.0494C10.4628 21.3945 15.8805 26.7146 22.2478 26.6725C28.6927 26.6281 34.0106 21.2658 33.9707 14.8475ZM92.1104 55.8511C92.1371 55.6359 92.1814 55.4562 92.1814 55.2787C92.1859 50.724 92.1947 46.1693 92.1659 41.6168C92.1637 41.2196 91.9662 40.7804 91.7444 40.4343C90.462 38.4265 89.1265 36.4519 87.8486 34.4419C86.0316 31.58 83.4181 30.2333 80.0658 30.2333C76.4096 30.2311 72.7534 30.2333 69.0973 30.2333C68.7689 30.2333 68.4406 30.2333 68.1233 30.2333C68.1233 38.8591 68.1233 47.3584 68.1233 55.8688C69.4944 55.8688 70.7922 55.8688 72.1566 55.8688C72.5671 53.8033 73.47 52.0107 75.1051 50.6508C76.7424 49.2886 78.6393 48.6141 80.758 48.6829C82.4974 48.7406 84.0925 49.3019 85.4902 50.3623C87.3205 51.7512 88.3699 53.617 88.7826 55.8533C89.9229 55.8511 90.9967 55.8511 92.1104 55.8511ZM64.9042 51.4738C57.0438 51.4738 49.2899 51.4738 41.6469 51.4738C42.1838 52.6519 42.8161 53.7856 43.2088 54.9991C43.4307 55.6802 43.6281 55.9176 44.3602 55.9132C50.8983 55.8821 57.4387 55.8955 63.9768 55.8932C64.2763 55.8932 64.5758 55.8666 64.9042 55.8511C64.9042 54.358 64.9042 52.9448 64.9042 51.4738ZM85.7609 57.0868C85.7698 54.1139 83.4647 51.7822 80.5073 51.7734C77.5611 51.7645 75.1783 54.1028 75.1539 57.0269C75.1295 59.8977 77.57 62.3648 80.4519 62.3848C83.3626 62.4047 85.752 60.022 85.7609 57.0868ZM40.4178 57.18C40.4822 54.2914 38.2215 51.8466 35.4238 51.7778C32.3112 51.7024 29.9063 53.9431 29.8375 56.9825C29.7732 59.8756 32.1692 62.3426 35.0866 62.3825C37.9552 62.4247 40.3535 60.0841 40.4178 57.18ZM15.2415 55.891C18.9798 55.891 22.7203 55.8932 26.4608 55.8799C26.6073 55.8799 26.8336 55.749 26.8846 55.6226C27.4614 54.2249 28.0116 52.8161 28.564 51.4228C25.5623 51.4228 22.4075 51.3496 19.2572 51.4472C16.9521 51.5204 15.1639 53.5793 15.2415 55.891Z" fill="#FF6F5E"/>
<path d="M24.1807 11.5725C24.8019 14.3235 23.7392 16.5176 21.9443 18.4988C21.4474 19.0468 21.0769 19.7057 20.6154 20.287C19.9454 21.1323 19.0846 21.2787 18.3525 20.7063C17.6803 20.1827 17.5893 19.282 18.1661 18.47C18.9892 17.3097 19.87 16.1871 20.6598 15.0024C20.9305 14.5964 21.1146 14.055 21.1324 13.5692C21.19 11.8986 21.1434 10.2236 21.159 8.55077C21.1701 7.36162 21.7136 6.75595 22.6964 6.76926C23.6726 6.78257 24.174 7.39267 24.1807 8.59736C24.1851 9.58906 24.1807 10.5808 24.1807 11.5725Z" fill="#FF6F5E"/>
<path d="M75.5273 38.4951C75.5273 36.9776 75.525 35.4578 75.5273 33.9403C75.5295 32.1921 75.9954 31.6996 77.7081 31.724C78.9128 31.7417 80.1308 31.7129 81.3133 31.8926C83.3189 32.1988 84.8652 33.3191 85.9013 35.0518C87.1414 37.1218 88.3306 39.2205 89.4953 41.3348C90.5336 43.2228 89.4465 45.2706 87.2857 45.3305C83.9112 45.4236 80.5323 45.3837 77.1557 45.3482C76.0797 45.3371 75.545 44.7115 75.5317 43.6066C75.5139 41.9028 75.5273 40.1989 75.5273 38.4951ZM78.6931 42.2444C81.3177 42.2444 83.858 42.2444 86.4981 42.2444C85.482 40.4674 84.528 38.779 83.5585 37.0974C82.4447 35.165 81.0049 34.515 78.6931 34.9099C78.6931 37.3303 78.6931 39.7596 78.6931 42.2444Z" fill="#FF6F5E"/>
<path d="M82.9453 57.0886C82.9342 58.442 81.8027 59.5712 80.4694 59.5623C79.1493 59.5535 77.9868 58.3909 77.9757 57.0687C77.9624 55.7043 79.1427 54.5595 80.5404 54.5839C81.9181 54.6083 82.9564 55.6887 82.9453 57.0886Z" fill="#FF6F5E"/>
<path d="M37.6026 57.0582C37.6004 58.4381 36.4933 59.5652 35.1378 59.5629C33.7911 59.5607 32.6663 58.4204 32.6641 57.056C32.6618 55.6738 33.7534 54.5845 35.14 54.5845C36.5377 54.5867 37.6048 55.6583 37.6026 57.0582Z" fill="#FF6F5E"/>
</svg>
