<svg width="423" height="423" viewBox="0 0 423 423" fill="none" xmlns="http://www.w3.org/2000/svg">
<path fill-rule="evenodd" clip-rule="evenodd" d="M309.987 109.897C262.383 63.722 191.142 56.7272 135.761 88.1255L85.1187 39.0023C168.413 -19.0909 283.244 -12.5 358.195 60.2002C433.143 132.901 443.227 247.477 387.693 332.5L337.053 283.378C366.751 227.066 357.591 156.073 309.987 109.897Z" fill="#C0C5D0" fill-opacity="0.21"/>
<path fill-rule="evenodd" clip-rule="evenodd" d="M113.014 312.981C160.618 359.155 231.859 366.149 287.24 334.752L337.883 383.874C254.587 441.97 139.755 435.376 64.8057 362.678C-10.1438 289.979 -20.2262 175.401 35.3069 90.3787L85.9494 139.502C56.2505 195.811 65.4097 266.805 113.014 312.981Z" fill="#C0C5D0" fill-opacity="0.21"/>
<path fill-rule="evenodd" clip-rule="evenodd" d="M275.185 147.471C239.812 112.865 183.33 113.724 149.028 149.391C114.725 185.057 115.592 242.024 150.964 276.631C186.336 311.238 242.818 310.379 277.121 274.71C311.422 239.044 310.556 182.077 275.185 147.471ZM182.08 243.661C200.012 261.205 228.613 260.803 245.962 242.764C263.311 224.725 262.838 195.879 244.906 178.335C226.974 160.791 198.373 161.193 181.024 179.232C163.675 197.271 164.147 226.117 182.08 243.661Z" fill="#C0C5D0" fill-opacity="0.21"/>
</svg>
