<svg width="525" height="529" viewBox="0 0 525 529" fill="none" xmlns="http://www.w3.org/2000/svg">
<g opacity="0.15">
<path fill-rule="evenodd" clip-rule="evenodd" d="M476.233 48.6616C403.175 -22.2045 293.84 -32.9395 208.845 15.248L131.123 -60.1424C258.957 -149.299 435.19 -139.184 550.22 -27.6095C665.243 83.9657 680.719 259.808 595.49 390.294L517.772 314.906C563.349 228.484 549.293 119.528 476.233 48.6616Z" fill="#B5BDCD"/>
<path fill-rule="evenodd" clip-rule="evenodd" d="M173.934 360.339C246.992 431.204 356.328 441.938 441.323 393.752L519.046 469.141C391.21 558.302 214.974 548.182 99.9478 436.61C-15.0787 325.037 -30.5524 149.192 54.6755 18.707L132.398 94.0974C86.8181 180.517 100.875 289.472 173.934 360.339Z" fill="#B5BDCD"/>
<path fill-rule="evenodd" clip-rule="evenodd" d="M422.82 106.325C368.532 53.2147 281.848 54.5339 229.204 109.272C176.559 164.01 177.889 251.439 232.175 304.551C286.461 357.662 373.146 356.344 425.791 301.602C478.433 246.865 477.104 159.436 422.82 106.325ZM279.929 253.95C307.45 280.875 351.344 280.259 377.97 252.574C404.596 224.889 403.871 180.619 376.35 153.693C348.829 126.769 304.935 127.385 278.309 155.07C251.683 182.755 252.408 227.025 279.929 253.95Z" fill="#B5BDCD"/>
</g>
</svg>
