<svg width="150" height="41" viewBox="0 0 150 41" fill="none" xmlns="http://www.w3.org/2000/svg">
<path d="M39.5086 28.3707C44.0021 18.0533 39.1756 6.09198 28.7285 1.65435C18.2813 -2.78328 6.16956 1.98322 1.67613 12.3006C-2.81731 22.618 2.00913 34.5793 12.4563 39.017C22.9034 43.4546 35.0152 38.6881 39.5086 28.3707Z" fill="#299400"/>
<path fill-rule="evenodd" clip-rule="evenodd" d="M20.5928 6.35352C27.6722 6.35352 32.4736 11.7331 32.4736 17.5391C32.4736 19.8709 31.9586 21.9014 30.7583 24.4445C23.7224 24.4445 22.4349 29.0612 22.1378 32.1559L21.9239 34.3155H19.2656L19.0517 32.1559C18.7506 29.0612 17.4631 24.4445 10.4312 24.4445C9.23084 21.9014 8.71583 19.867 8.71583 17.5391C8.70791 11.7331 13.5133 6.35352 20.5928 6.35352Z" fill="white"/>
<path fill-rule="evenodd" clip-rule="evenodd" d="M59.7141 6.35352C53.0229 6.35352 48.0036 10.3794 48.0472 17.367H54.2669C54.1797 14.5696 55.9823 11.8583 59.7141 11.8583C62.5467 11.8583 64.3492 13.7206 64.3492 16.0954C64.3492 18.5524 62.3763 19.91 59.1991 21.432C55.0394 23.4234 52.5515 24.3545 48.0472 25.8373V33.8852H70.355V28.3843H56.4537C58.6049 27.5001 60.6966 26.5259 62.5903 25.63C67.6096 23.2591 70.5689 20.5869 70.5689 15.802C70.5689 10.039 66.1914 6.35352 59.7141 6.35352ZM80.2194 12.2847H93.0907V6.77997H74.2136V33.893H80.2194V12.2847ZM102.099 6.77997H96.0936V33.893H102.056L113.251 16.5649V33.893H119.257V6.77997H113.251L102.099 24.108V6.77997ZM149.417 23.7246H143.197C142.254 26.7333 139.378 28.8108 135.991 28.8108C131.059 28.8108 127.842 24.6167 127.842 20.3365C127.842 16.0563 130.976 11.8622 136.165 11.8622C139.596 11.8622 142.258 13.9397 143.201 16.9483H149.421C148.522 10.888 143.673 6.35743 135.995 6.35743C127.501 6.35743 121.84 12.2456 121.84 20.3365C121.84 28.4273 127.501 34.3155 135.995 34.3155C143.669 34.3155 148.518 29.8671 149.417 23.7246Z" fill="#262626"/>
</svg>
