<svg width="126" height="37" viewBox="0 0 126 37" fill="none" xmlns="http://www.w3.org/2000/svg">
<path fill-rule="evenodd" clip-rule="evenodd" d="M120.024 31.4466C122.494 31.4466 124.243 31.0126 125.545 30.0788V25.8415C124.207 26.7424 122.595 27.3102 120.332 27.3102C116.526 27.3102 114.946 24.4407 114.946 19.9032C114.946 15.1331 116.866 12.6957 120.366 12.6957C122.424 12.6957 124.448 13.3971 125.511 14.0635V9.65964C124.38 9.05901 122.424 8.625 119.749 8.625C112.922 8.625 109.39 13.395 109.39 20.0677C109.424 27.376 112.888 31.4466 120.024 31.4466ZM86.6478 29.5111V25.2738C85.0004 26.3743 82.1877 27.3431 79.6161 27.3431C75.7058 27.3431 74.2297 25.5412 73.9907 21.8716H86.8889V19.1359C86.8889 11.4965 83.4249 8.62706 78.1082 8.62706C71.5904 8.62706 68.5028 13.465 68.5028 20.1047C68.5028 27.7442 72.3793 31.4487 79.1699 31.4487C82.5662 31.4466 85.0702 30.5457 86.6478 29.5111ZM37.6987 9.0261V17.7002H30.5633V9.0261H25.2129V31.0126H30.5633V21.8387H37.6987V31.0147H43.0491V9.0261H37.6987ZM67.1642 26.8761H64.7977V9.0261H49.2243V10.8938C49.2243 16.2644 48.8817 23.2045 46.9953 26.8741H45.2802V36.0151H50.2204V31.0126H62.1923V36.0171H67.1324V26.8761H67.1642ZM103.695 31.0126L95.8049 20.2035V31.0126H90.4545V9.0261H95.8049V19.1688L103.351 9.0261H108.737L101.191 19.1688L109.767 31.0126H103.695ZM77.9687 12.6957C80.6101 12.6957 81.4327 14.8308 81.4327 17.5994V18.0334H73.9886C74.1282 14.5325 75.4309 12.6957 77.9687 12.6957ZM59.4451 26.8761H51.8995C53.3736 23.5727 53.7859 17.5685 53.7859 13.7653V13.0968H59.4451V26.8761Z" fill="black"/>
<path fill-rule="evenodd" clip-rule="evenodd" d="M20.7525 31.0126H15.2985V4.75592H12.8643C8.40421 4.75592 6.07159 6.92392 6.07159 10.1615C6.07159 13.8311 7.68307 15.5322 11.0118 17.7022L13.7568 19.5041L5.86645 31.0126H0L7.1015 20.7362C3.01782 17.9018 0.721147 15.1311 0.721147 10.4618C0.721147 4.62222 4.90422 0.652344 12.8284 0.652344H20.7187V31.0126H20.7525Z" fill="#FC3F1D"/>
</svg>
