<svg width="41" height="40" viewBox="0 0 41 40" fill="none" xmlns="http://www.w3.org/2000/svg">
<path d="M20.0762 0C9.03009 0 0.0761719 8.95392 0.0761719 20C0.0761719 31.0461 9.03009 40 20.0762 40C31.1222 40 40.0762 31.0461 40.0762 20C40.0762 8.95392 31.1212 0 20.0762 0ZM28.5081 12.6318C27.875 16.8317 27.2202 21.0284 26.5592 25.2242C26.4325 26.0253 26.2873 26.8296 26.0745 27.611C25.7165 28.9249 24.9143 29.2756 23.6472 28.627C22.8128 28.1995 22.0594 27.6121 21.2748 27.088C19.9631 26.2111 18.6565 25.329 17.3479 24.4479C17.241 24.3753 17.1351 24.3005 17.0324 24.2227C16.1575 23.5585 16.0828 22.9701 16.8653 22.2022C18.3068 20.7887 19.7897 19.4168 21.2457 18.0178C21.8528 17.4357 22.4392 16.8327 23.0276 16.2318C23.1895 16.0668 23.3898 15.8717 23.1812 15.6299C22.9747 15.3902 22.7235 15.521 22.516 15.6528C21.7947 16.1083 21.0766 16.5691 20.3667 17.0423C18.3005 18.4205 16.2426 19.809 14.1754 21.1851C13.5538 21.5992 12.8854 21.896 12.1123 21.8597C12.1029 21.8908 12.0936 21.923 12.0853 21.9541C10.9687 21.6449 9.84994 21.345 8.73744 21.0212C8.30573 20.8956 7.87505 20.7451 7.46928 20.5521C6.81444 20.2397 6.76463 19.7042 7.37796 19.314C7.87505 18.9975 8.42611 18.7599 8.97094 18.5274C13.8962 16.4249 18.8225 14.3244 23.7551 12.2416C24.6569 11.8607 25.593 11.5608 26.5135 11.2256C26.6225 11.1862 26.7356 11.1571 26.8487 11.1301C28.0722 10.8468 28.6959 11.3854 28.5081 12.6318Z" fill="#2C3D63"/>
</svg>
