<svg width="34" height="34" viewBox="0 0 34 34" fill="none" xmlns="http://www.w3.org/2000/svg">
<path d="M17.4173 0.417969C8.25882 0.417969 0.834961 7.84183 0.834961 17.0003C0.834961 26.1588 8.25882 33.5827 17.4173 33.5827C26.5758 33.5827 33.9997 26.1588 33.9997 17.0003C33.9997 7.84183 26.575 0.417969 17.4173 0.417969ZM24.4084 10.8912C23.8835 14.3734 23.3406 17.853 22.7925 21.3318C22.6875 21.996 22.5671 22.6629 22.3907 23.3108C22.0938 24.4001 21.4287 24.6909 20.3781 24.1532C19.6863 23.7987 19.0616 23.3117 18.4111 22.8771C17.3235 22.1501 16.2403 21.4187 15.1552 20.6882C15.0666 20.628 14.9789 20.566 14.8937 20.5015C14.1683 19.9508 14.1064 19.4629 14.7551 18.8262C15.9503 17.6543 17.1799 16.5168 18.387 15.3569C18.8904 14.8742 19.3766 14.3743 19.8644 13.8761C19.9986 13.7393 20.1647 13.5775 19.9918 13.377C19.8205 13.1783 19.6123 13.2867 19.4402 13.396C18.8422 13.7737 18.2468 14.1557 17.6583 14.5481C15.9451 15.6908 14.2389 16.842 12.5249 17.983C12.0095 18.3263 11.4554 18.5724 10.8143 18.5422C10.8066 18.5681 10.7988 18.5947 10.792 18.6205C9.86612 18.3641 8.93857 18.1155 8.01618 17.847C7.65824 17.7429 7.30116 17.6181 6.96473 17.4581C6.42179 17.1991 6.38049 16.7551 6.88901 16.4316C7.30116 16.1692 7.75805 15.9721 8.20978 15.7794C12.2934 14.0361 16.3779 12.2946 20.4676 10.5677C21.2153 10.2519 21.9914 10.0033 22.7546 9.72533C22.845 9.69264 22.9388 9.66854 23.0326 9.64617C24.047 9.41127 24.5641 9.85784 24.4084 10.8912Z" fill="#FF6F5E"/>
</svg>
