<svg width="34" height="34" viewBox="0 0 34 34" fill="none" xmlns="http://www.w3.org/2000/svg">
<path d="M15.4121 10.7149C11.1833 11.5212 8.98058 16.0305 10.8968 19.8716C11.1044 20.2867 11.1447 20.653 11.0349 21.0887C10.8797 21.7055 10.7742 22.3351 10.6361 23.0144C11.3695 22.8403 12.0368 22.6979 12.6939 22.5186C13.0241 22.4286 13.3003 22.456 13.6048 22.6198C14.7877 23.2563 16.0615 23.4939 17.3858 23.3095C21.0485 22.8017 23.44 19.5842 22.873 15.9301C22.3506 12.5694 19.1245 10.0072 15.4121 10.7149ZM20.8255 19.6803C20.3357 20.4557 19.7001 20.9978 18.7085 20.9421C18.0172 20.9283 17.3593 20.7525 16.7477 20.4308C15.2809 19.6588 14.0869 18.5763 13.1716 17.1953C12.7333 16.534 12.4597 15.8083 12.4717 15.0003C12.4846 14.1554 12.9924 13.5996 13.6228 13.1407C13.8836 12.9511 14.2378 13.066 14.3854 13.3697C14.6367 13.8878 14.8786 14.4127 15.0759 14.9523C15.1342 15.1127 15.0604 15.3443 14.991 15.5218C14.9318 15.6754 14.7928 15.7972 14.6899 15.9335C14.5063 16.1772 14.5012 16.4242 14.683 16.6712C15.3847 17.6233 16.2493 18.3919 17.2881 18.9598C17.5557 19.1064 17.8387 19.0695 18.0103 18.8268C18.4358 18.2246 18.9607 18.2058 19.58 18.4614C19.8639 18.5789 20.1744 18.6312 20.4687 18.7247C20.9413 18.8774 21.0888 19.2643 20.8255 19.6803Z" fill="#FF6F5E"/>
<path d="M16.5824 0.417969C7.42398 0.417969 0 7.84195 0 17.0003C0 26.1587 7.42398 33.5827 16.5824 33.5827C25.7408 33.5827 33.1647 26.1587 33.1647 17.0003C33.1647 7.84195 25.7399 0.417969 16.5824 0.417969ZM17.9754 24.9947C16.3319 25.2744 14.7433 25.0719 13.2148 24.3909C13.0552 24.3197 12.8391 24.3051 12.6675 24.3437C11.4503 24.6173 10.2349 24.8995 9.02458 25.204C8.48847 25.3387 8.42242 25.0445 8.49705 24.6877C8.76124 23.4242 9.02372 22.1607 9.2759 20.8938C9.3025 20.7599 9.28448 20.5944 9.22787 20.4709C7.03713 15.7034 9.60958 10.32 14.7056 9.05226C15.3232 8.89872 15.9682 8.85583 16.6004 8.76234C20.5873 8.82152 23.9935 11.7379 24.6188 15.6759C25.3187 20.0814 22.3517 24.2502 17.9754 24.9947Z" fill="#FF6F5E"/>
</svg>
