<svg width="40" height="40" viewBox="0 0 40 40" fill="none" xmlns="http://www.w3.org/2000/svg">
<path d="M18.589 12.4188C13.4887 13.3913 10.832 18.8299 13.1431 23.4626C13.3935 23.9634 13.4421 24.4051 13.3097 24.9307C13.1225 25.6745 12.9952 26.4339 12.8286 27.2533C13.7132 27.0432 14.5181 26.8715 15.3105 26.6553C15.7088 26.5467 16.042 26.5798 16.4092 26.7774C17.8359 27.545 19.3722 27.8316 20.9695 27.6091C25.3871 26.9967 28.2714 23.1161 27.5876 18.7089C26.9575 14.6555 23.0666 11.5653 18.589 12.4188ZM25.1181 23.2319C24.5274 24.1672 23.7608 24.821 22.5648 24.7538C21.731 24.7372 20.9375 24.5251 20.1998 24.1372C18.4308 23.2061 16.9907 21.9005 15.8868 20.2348C15.3581 19.4372 15.0281 18.562 15.0426 17.5874C15.0581 16.5684 15.6706 15.898 16.431 15.3445C16.7455 15.1159 17.1727 15.2545 17.3507 15.6207C17.6538 16.2456 17.9455 16.8787 18.1835 17.5295C18.2538 17.7229 18.1649 18.0023 18.0811 18.2164C18.0097 18.4016 17.8421 18.5485 17.7179 18.713C17.4966 19.0068 17.4903 19.3048 17.7097 19.6027C18.5559 20.7511 19.5988 21.678 20.8516 22.3629C21.1744 22.5398 21.5158 22.4953 21.7227 22.2026C22.2358 21.4763 22.869 21.4535 23.6159 21.7618C23.9584 21.9036 24.3329 21.9667 24.6877 22.0794C25.2578 22.2636 25.4357 22.7302 25.1181 23.2319Z" fill="#2C3D63"/>
<path d="M20 0C8.95407 0 0 8.95407 0 20C0 31.0459 8.95407 40 20 40C31.0459 40 40 31.0459 40 20C40 8.95407 31.0449 0 20 0ZM21.6801 29.642C19.6979 29.9793 17.7819 29.7352 15.9383 28.9137C15.7459 28.8279 15.4852 28.8103 15.2783 28.8568C13.8103 29.1868 12.3443 29.5272 10.8845 29.8945C10.2379 30.0569 10.1583 29.702 10.2483 29.2717C10.5669 27.7478 10.8835 26.2239 11.1877 24.6958C11.2197 24.5345 11.198 24.3348 11.1297 24.1858C8.48748 18.4358 11.5901 11.9429 17.7364 10.4138C18.4813 10.2286 19.2593 10.1769 20.0217 10.0641C24.8303 10.1355 28.9385 13.653 29.6927 18.4026C30.5369 23.7161 26.9584 28.744 21.6801 29.642Z" fill="#2C3D63"/>
</svg>
