<svg width="63" height="63" viewBox="0 0 63 63" fill="none" xmlns="http://www.w3.org/2000/svg">
<path fill-rule="evenodd" clip-rule="evenodd" d="M45.8357 16.2498C38.7969 9.42215 28.2629 8.38788 20.0741 13.0305L12.5859 5.76701C24.9022 -2.82284 41.8814 -1.8483 52.964 8.90141C64.046 19.6512 65.537 36.5928 57.3256 49.1645L49.8378 41.9012C54.229 33.5748 52.8747 23.0775 45.8357 16.2498Z" fill="#FF6F5E"/>
<path fill-rule="evenodd" clip-rule="evenodd" d="M16.7106 46.2784C23.7495 53.1059 34.2835 54.1401 42.4723 49.4976L49.9606 56.761C37.6442 65.3512 20.6646 64.3762 9.58238 53.6267C-1.4999 42.8773 -2.99072 25.9354 5.2206 13.3637L12.7088 20.6272C8.31739 28.9533 9.6717 39.4507 16.7106 46.2784Z" fill="#FF6F5E"/>
<path fill-rule="evenodd" clip-rule="evenodd" d="M40.6893 21.8055C35.4589 16.6885 27.1073 16.8156 22.0353 22.0894C16.9632 27.3632 17.0913 35.7865 22.3216 40.9036C27.5518 46.0206 35.9034 45.8936 40.9756 40.6195C46.0474 35.3459 45.9193 26.9225 40.6893 21.8055ZM26.9224 36.0285C29.5739 38.6226 33.8029 38.5632 36.3682 35.8959C38.9335 33.2286 38.8637 28.9633 36.2122 26.3692C33.5606 23.7751 29.3316 23.8345 26.7663 26.5018C24.201 29.1691 24.2709 33.4343 26.9224 36.0285Z" fill="#2C3D63"/>
</svg>
