<svg width="259" height="74" viewBox="0 0 259 74" fill="none" xmlns="http://www.w3.org/2000/svg">
<path d="M99.749 16.092C99.749 22.002 103.792 26.4346 110.206 26.4346C113.859 26.4346 116.48 24.9013 118.237 23.0893L115.727 19.5209C114.361 20.8869 112.409 21.9742 110.429 21.9742C106.581 21.9742 104.796 18.9355 104.796 15.9804C104.796 13.1091 106.441 10.2934 110.429 10.2934C112.213 10.2934 114.138 11.2134 115.42 12.3285L117.679 8.64865C115.727 6.72509 112.883 5.83301 110.206 5.83301C104.043 5.83301 99.749 10.2934 99.749 16.092Z" fill="#2C3D63"/>
<path d="M122.739 26.1002H127.563V15.7854H131.941V11.7432H118.389V15.7854H122.739V26.1002Z" fill="#2C3D63"/>
<path d="M133.966 31.6753H138.79V26.2948C138.79 25.5701 138.734 25.0682 138.734 25.0682H138.79C139.822 25.9603 141.104 26.4343 142.443 26.4343C146.263 26.4343 149.135 23.4792 149.135 18.9352C149.135 14.4747 146.57 11.4082 142.666 11.4082C140.937 11.4082 139.292 12.0773 138.316 13.3875H138.26C138.26 13.3875 138.316 12.9415 138.316 12.4676V11.7427H133.966V31.6753ZM138.65 19.0188C138.65 16.5377 140.017 15.4784 141.467 15.4784C143.14 15.4784 144.283 16.8722 144.283 19.0188C144.283 21.2212 142.973 22.4478 141.467 22.4478C139.571 22.4478 138.65 20.7472 138.65 19.0188Z" fill="#2C3D63"/>
<path d="M150.803 18.963C150.803 23.4514 154.428 26.4343 158.945 26.4343C163.462 26.4343 167.087 23.4514 167.087 18.963C167.087 14.4468 163.462 11.4082 158.917 11.4082C154.428 11.4082 150.803 14.4468 150.803 18.963ZM155.683 18.963C155.683 16.7886 157.188 15.4226 158.945 15.4226C160.702 15.4226 162.207 16.7886 162.207 18.963C162.207 21.1096 160.702 22.4198 158.945 22.4198C157.188 22.4198 155.683 21.1096 155.683 18.963Z" fill="#2C3D63"/>
<path d="M176.529 10.7399C179.345 10.7399 181.799 9.20663 181.799 6.47462V6.16797H178.258V6.5025C178.258 7.64548 177.338 8.14728 176.529 8.14728C175.693 8.14728 174.8 7.64548 174.8 6.5025V6.16797H171.231V6.47462C171.231 9.20663 173.685 10.7399 176.529 10.7399ZM169.502 26.1005H174.186L178.174 19.8001C178.398 19.4099 178.704 18.9638 178.955 18.3784H179.011C178.955 18.9359 178.955 19.4935 178.955 19.828V26.1005H183.5V11.7435H178.816L174.828 18.0717C174.577 18.4899 174.298 18.9081 174.047 19.4935H173.991C174.019 19.1311 174.047 18.5735 174.047 18.0717V11.7435H169.502V26.1005Z" fill="#2C3D63"/>
<path d="M99.2754 49.2538C101.06 50.8149 103.542 52.3203 107.139 52.3203C113.329 52.3203 117.679 47.9157 117.679 41.922C117.679 36.3186 113.859 31.7188 107.362 31.7188C104.406 31.7188 101.506 32.6666 99.5821 34.6738L101.841 38.3536C103.514 36.904 105.187 36.1235 107.167 36.1235C110.095 36.1235 111.963 37.7961 112.493 40.0542H104.239V43.9571H112.465C111.935 46.1594 110.178 47.9157 107.167 47.9157C105.048 47.9157 103.096 47.0236 101.673 45.7691L99.2754 49.2538Z" fill="#2C3D63"/>
<path d="M120.104 51.9869H124.929V46.718H126.434L129.474 51.9869H134.967L130.171 44.5156V44.4599L134.381 37.6299H129.139L126.295 42.6757H124.929V37.6299H120.104V51.9869Z" fill="#2C3D63"/>
<path d="M135.172 44.794C135.172 48.7526 138.044 52.3209 143.175 52.3209C145.573 52.3209 147.915 51.401 149.337 49.9513L147.581 46.5781C146.549 47.4702 145.043 48.3066 143.649 48.3066C141.223 48.3066 140.052 46.4388 140.052 44.7382C140.052 43.0377 141.195 41.3093 143.481 41.3093C144.736 41.3093 146.019 41.8947 146.855 42.7031L148.891 39.4694C147.469 37.9361 145.182 37.2949 143.175 37.2949C138.016 37.2949 135.172 40.9469 135.172 44.794Z" fill="#2C3D63"/>
<path d="M151.366 51.9869H156.19V41.6721H160.457V51.9869H165.281V37.6299H151.366V51.9869Z" fill="#2C3D63"/>
<path d="M167.713 44.794C167.713 48.6132 170.473 52.3209 175.604 52.3209C177.807 52.3209 180.177 51.5683 181.739 50.2301L179.954 46.8569C178.783 47.6375 177.417 48.3066 175.995 48.3066C174.461 48.3066 173.011 47.4981 172.648 45.7418H181.711C181.767 45.24 181.822 44.7382 181.822 44.2365C181.822 40.2499 179.424 37.2949 175.186 37.2949C170.557 37.2949 167.713 40.5845 167.713 44.794ZM172.76 42.9819C173.011 41.839 173.68 40.8353 175.074 40.8353C176.301 40.8353 177.054 41.8111 177.054 42.9819H172.76Z" fill="#2C3D63"/>
<path d="M184.343 57.5619H189.166V52.1816C189.166 51.4567 189.111 50.955 189.111 50.955H189.166C190.198 51.847 191.481 52.3209 192.82 52.3209C196.64 52.3209 199.512 49.3659 199.512 44.8218C199.512 40.3615 196.947 37.2949 193.043 37.2949C191.314 37.2949 189.669 37.964 188.693 39.2742H188.637C188.637 39.2742 188.693 38.8282 188.693 38.3542V37.6294H184.343V57.5619ZM189.027 44.9055C189.027 42.4244 190.393 41.365 191.843 41.365C193.516 41.365 194.66 42.7589 194.66 44.9055C194.66 47.1078 193.349 48.3344 191.843 48.3344C189.948 48.3344 189.027 46.6339 189.027 44.9055Z" fill="#2C3D63"/>
<path d="M205.031 51.9869H209.855V41.6721H214.233V37.6299H200.681V41.6721H205.031V51.9869Z" fill="#2C3D63"/>
<path d="M216.258 51.9869H220.943L224.93 45.6865C225.153 45.2962 225.46 44.8502 225.711 44.2648H225.767C225.711 44.8223 225.711 45.3798 225.711 45.7144V51.9869H230.256V37.6299H225.571L221.584 43.9581C221.333 44.3763 221.054 44.7944 220.803 45.3798H220.748C220.776 45.0174 220.803 44.4599 220.803 43.9581V37.6299H216.258V51.9869Z" fill="#2C3D63"/>
<path d="M232.296 50.2022C233.857 51.5962 236.172 52.3209 238.291 52.3209C241.693 52.3209 244.231 50.7877 244.231 47.749C244.231 46.0764 243.087 45.0727 242 44.571V44.5152C242.864 44.0413 243.784 43.0656 243.784 41.2814C243.784 38.8003 241.442 37.2949 238.487 37.2949C235.865 37.2949 234.025 37.9918 232.686 38.9118L234.08 41.8947C235.587 41.0026 236.702 40.8075 237.483 40.8075C238.71 40.8075 238.988 41.3372 238.988 41.9505C238.988 42.8426 238.291 43.0656 237.538 43.0656H236.088V46.2436H237.845C239.156 46.2436 239.406 46.7454 239.406 47.4424C239.406 48.1114 239.016 48.6968 237.678 48.6968C236.534 48.6968 235.112 47.9999 234.22 47.1915L232.296 50.2022Z" fill="#2C3D63"/>
<path d="M245.644 47.9442C245.644 50.4253 247.567 52.3209 250.328 52.3209C251.973 52.3209 253.646 51.5683 254.594 50.2301H254.65C254.65 50.2301 254.594 50.6483 254.594 51.1222V51.9864H259V43.1492C259 39.4972 256.547 37.2949 252.587 37.2949C250.244 37.2949 247.735 38.2149 246.508 39.1627L248.181 42.5638C249.324 41.8111 250.746 41.1977 252.14 41.1977C253.2 41.1977 254.176 41.5881 254.176 42.7868V43.0377H253.758C250.216 43.0377 245.644 44.097 245.644 47.9442ZM250.412 47.4981C250.412 46.1879 252.307 45.7976 253.786 45.7976H254.232V46.1879C254.232 47.3587 253.172 48.7247 251.778 48.7247C250.885 48.7247 250.412 48.1672 250.412 47.4981Z" fill="#2C3D63"/>
<path fill-rule="evenodd" clip-rule="evenodd" d="M53.9614 19.1304C45.6748 11.0924 33.2735 9.87482 23.633 15.3405L14.8174 6.78934C29.3169 -3.32326 49.3062 -2.17595 62.3534 10.4794C75.3999 23.1348 77.1552 43.0797 67.4881 57.8801L58.673 49.3291C63.8426 39.5267 62.2482 27.1685 53.9614 19.1304Z" fill="#FF6F5E"/>
<path fill-rule="evenodd" clip-rule="evenodd" d="M19.6729 54.4819C27.9596 62.5198 40.361 63.7373 50.0015 58.2719L58.8172 66.8228C44.3174 76.9359 24.3279 75.7881 11.2811 63.133C-1.76579 50.4779 -3.52089 30.5327 6.14607 15.7324L14.9617 24.2836C9.79184 34.0856 11.3862 46.4439 19.6729 54.4819Z" fill="#FF6F5E"/>
<path fill-rule="evenodd" clip-rule="evenodd" d="M47.903 25.671C41.7454 19.6469 31.9133 19.7965 25.9421 26.0052C19.9709 32.2139 20.1218 42.1305 26.2791 48.1547C32.4365 54.1788 42.2687 54.0293 48.24 47.8202C54.2109 41.6117 54.0601 31.6951 47.903 25.671ZM31.6956 42.4153C34.8171 45.4693 39.7958 45.3994 42.8159 42.2592C45.836 39.1191 45.7537 34.0977 42.6322 31.0437C39.5106 27.9898 34.5319 28.0596 31.5118 31.1998C28.4918 34.34 28.574 39.3613 31.6956 42.4153Z" fill="#2C3D63"/>
<path d="M258.105 69.8282V64.5519H256.474C256.106 64.5519 255.817 64.6371 255.607 64.8077C255.396 64.9782 255.291 65.2127 255.291 65.5112C255.291 65.8043 255.385 66.0348 255.575 66.2027C255.766 66.3706 256.029 66.4546 256.362 66.4546H258.345V67.3339H256.362C255.946 67.3339 255.588 67.2607 255.287 67.1141C254.986 66.9675 254.754 66.7583 254.591 66.4865C254.429 66.2121 254.347 65.8869 254.347 65.5112C254.347 65.1328 254.433 64.8077 254.603 64.5359C254.774 64.2641 255.018 64.0549 255.335 63.9083C255.655 63.7618 256.034 63.6885 256.474 63.6885H259V69.8282H258.105ZM254.012 69.8282L255.755 66.7743H256.778L255.035 69.8282H254.012Z" fill="#2C3E66"/>
<path d="M248.639 68.4372L251.597 63.6885H252.684V69.8282H251.74V65.0795L248.799 69.8282H247.695V63.6885H248.639V68.4372Z" fill="#2C3E66"/>
<path d="M240.836 72.1314V63.6893H241.747V64.6646H241.859C241.929 64.558 242.024 64.4221 242.147 64.2569C242.272 64.089 242.451 63.9398 242.683 63.8092C242.917 63.676 243.234 63.6094 243.634 63.6094C244.151 63.6094 244.607 63.7386 245.001 63.9971C245.395 64.2556 245.703 64.622 245.924 65.0963C246.146 65.5707 246.256 66.1303 246.256 66.7752C246.256 67.4254 246.146 67.989 245.924 68.466C245.703 68.9403 245.397 69.3081 245.005 69.5692C244.613 69.8277 244.162 69.957 243.65 69.957C243.256 69.957 242.94 69.8917 242.703 69.7611C242.465 69.6279 242.283 69.4773 242.155 69.3094C242.027 69.1389 241.929 68.9976 241.859 68.8857H241.779V72.1314H240.836ZM241.763 66.7592C241.763 67.2229 241.831 67.6319 241.967 67.9863C242.103 68.3381 242.302 68.6139 242.563 68.8138C242.824 69.0109 243.144 69.1095 243.522 69.1095C243.916 69.1095 244.246 69.0056 244.509 68.7978C244.776 68.5872 244.976 68.3048 245.109 67.9504C245.245 67.5933 245.313 67.1962 245.313 66.7592C245.313 66.3275 245.246 65.9384 245.113 65.592C244.982 65.2429 244.784 64.9671 244.517 64.7646C244.254 64.5594 243.922 64.4568 243.522 64.4568C243.138 64.4568 242.816 64.5541 242.555 64.7486C242.294 64.9404 242.096 65.2096 241.963 65.556C241.83 65.8998 241.763 66.3008 241.763 66.7592Z" fill="#2C3E66"/>
<path d="M236.614 69.957C236.06 69.957 235.573 69.825 235.155 69.5612C234.739 69.2974 234.414 68.9283 234.18 68.454C233.948 67.9797 233.832 67.4254 233.832 66.7912C233.832 66.1516 233.948 65.5933 234.18 65.1163C234.414 64.6393 234.739 64.2689 235.155 64.0051C235.573 63.7413 236.06 63.6094 236.614 63.6094C237.168 63.6094 237.653 63.7413 238.069 64.0051C238.487 64.2689 238.813 64.6393 239.044 65.1163C239.279 65.5933 239.396 66.1516 239.396 66.7912C239.396 67.4254 239.279 67.9797 239.044 68.454C238.813 68.9283 238.487 69.2974 238.069 69.5612C237.653 69.825 237.168 69.957 236.614 69.957ZM236.614 69.1095C237.035 69.1095 237.382 69.0016 237.653 68.7858C237.925 68.5699 238.126 68.2861 238.257 67.9344C238.388 67.5826 238.453 67.2015 238.453 66.7912C238.453 66.3808 238.388 65.9984 238.257 65.644C238.126 65.2895 237.925 65.0031 237.653 64.7846C237.382 64.566 237.035 64.4568 236.614 64.4568C236.193 64.4568 235.847 64.566 235.575 64.7846C235.303 65.0031 235.102 65.2895 234.971 65.644C234.841 65.9984 234.775 66.3808 234.775 66.7912C234.775 67.2015 234.841 67.5826 234.971 67.9344C235.102 68.2861 235.303 68.5699 235.575 68.7858C235.847 69.0016 236.193 69.1095 236.614 69.1095Z" fill="#2C3E66"/>
<path d="M228.073 64.5679V63.6885H233.062V64.5679H231.047V69.8282H230.104V64.5679H228.073Z" fill="#2C3E66"/>
<path d="M224.373 69.9729C223.984 69.9729 223.631 69.8997 223.314 69.7531C222.996 69.6039 222.745 69.3894 222.558 69.1095C222.372 68.8271 222.278 68.486 222.278 68.0863C222.278 67.7345 222.348 67.4494 222.486 67.2309C222.625 67.0097 222.81 66.8365 223.042 66.7112C223.274 66.586 223.529 66.4927 223.809 66.4314C224.092 66.3675 224.376 66.3168 224.661 66.2795C225.034 66.2315 225.336 66.1956 225.568 66.1716C225.803 66.1449 225.973 66.101 226.08 66.0397C226.189 65.9784 226.244 65.8718 226.244 65.7199V65.6879C226.244 65.2935 226.136 64.9871 225.92 64.7686C225.707 64.5501 225.383 64.4408 224.948 64.4408C224.498 64.4408 224.145 64.5394 223.889 64.7366C223.633 64.9338 223.453 65.1443 223.35 65.3681L222.454 65.0484C222.614 64.6753 222.827 64.3848 223.094 64.177C223.363 63.9665 223.656 63.8199 223.973 63.7373C224.293 63.652 224.607 63.6094 224.916 63.6094C225.114 63.6094 225.34 63.6334 225.596 63.6813C225.854 63.7266 226.104 63.8212 226.343 63.9651C226.586 64.109 226.787 64.3262 226.947 64.6167C227.107 64.9071 227.187 65.2962 227.187 65.7839V69.829H226.244V68.9976H226.196C226.132 69.1309 226.025 69.2734 225.876 69.4253C225.727 69.5772 225.528 69.7065 225.28 69.8131C225.032 69.9196 224.73 69.9729 224.373 69.9729ZM224.517 69.1255C224.89 69.1255 225.204 69.0523 225.46 68.9057C225.719 68.7591 225.913 68.5699 226.044 68.3381C226.177 68.1062 226.244 67.8624 226.244 67.6066V66.7432C226.204 66.7912 226.116 66.8351 225.98 66.8751C225.846 66.9124 225.692 66.9457 225.516 66.975C225.343 67.0017 225.174 67.0257 225.008 67.047C224.846 67.0656 224.714 67.0816 224.613 67.0949C224.368 67.1269 224.138 67.1789 223.925 67.2508C223.715 67.3201 223.544 67.4254 223.414 67.5666C223.286 67.7052 223.222 67.8944 223.222 68.1342C223.222 68.462 223.343 68.7098 223.585 68.8777C223.831 69.0429 224.141 69.1255 224.517 69.1255Z" fill="#2C3E66"/>
<path d="M215.707 72.1314V63.6893H216.618V64.6646H216.73C216.8 64.558 216.896 64.4221 217.018 64.2569C217.143 64.089 217.322 63.9398 217.554 63.8092C217.788 63.676 218.105 63.6094 218.505 63.6094C219.022 63.6094 219.478 63.7386 219.872 63.9971C220.267 64.2556 220.574 64.622 220.795 65.0963C221.017 65.5707 221.127 66.1303 221.127 66.7752C221.127 67.4254 221.017 67.989 220.795 68.466C220.574 68.9403 220.268 69.3081 219.876 69.5692C219.484 69.8277 219.033 69.957 218.521 69.957C218.127 69.957 217.811 69.8917 217.574 69.7611C217.337 69.6279 217.154 69.4773 217.026 69.3094C216.898 69.1389 216.8 68.9976 216.73 68.8857H216.65V72.1314H215.707ZM216.634 66.7592C216.634 67.2229 216.702 67.6319 216.838 67.9863C216.974 68.3381 217.173 68.6139 217.434 68.8138C217.695 69.0109 218.015 69.1095 218.393 69.1095C218.788 69.1095 219.117 69.0056 219.38 68.7978C219.647 68.5872 219.847 68.3048 219.98 67.9504C220.116 67.5933 220.184 67.1962 220.184 66.7592C220.184 66.3275 220.117 65.9384 219.984 65.592C219.853 65.2429 219.655 64.9671 219.388 64.7646C219.125 64.5594 218.793 64.4568 218.393 64.4568C218.009 64.4568 217.687 64.5541 217.426 64.7486C217.165 64.9404 216.967 65.2096 216.834 65.556C216.701 65.8998 216.634 66.3008 216.634 66.7592Z" fill="#2C3E66"/>
<path d="M211.485 69.957C210.931 69.957 210.445 69.825 210.026 69.5612C209.61 69.2974 209.285 68.9283 209.051 68.454C208.819 67.9797 208.703 67.4254 208.703 66.7912C208.703 66.1516 208.819 65.5933 209.051 65.1163C209.285 64.6393 209.61 64.2689 210.026 64.0051C210.445 63.7413 210.931 63.6094 211.485 63.6094C212.039 63.6094 212.524 63.7413 212.94 64.0051C213.359 64.2689 213.684 64.6393 213.915 65.1163C214.15 65.5933 214.267 66.1516 214.267 66.7912C214.267 67.4254 214.15 67.9797 213.915 68.454C213.684 68.9283 213.359 69.2974 212.94 69.5612C212.524 69.825 212.039 69.957 211.485 69.957ZM211.485 69.1095C211.906 69.1095 212.253 69.0016 212.524 68.7858C212.796 68.5699 212.997 68.2861 213.128 67.9344C213.259 67.5826 213.324 67.2015 213.324 66.7912C213.324 66.3808 213.259 65.9984 213.128 65.644C212.997 65.2895 212.796 65.0031 212.524 64.7846C212.253 64.566 211.906 64.4568 211.485 64.4568C211.064 64.4568 210.718 64.566 210.446 64.7846C210.174 65.0031 209.973 65.2895 209.842 65.644C209.712 65.9984 209.646 66.3808 209.646 66.7912C209.646 67.2015 209.712 67.5826 209.842 67.9344C209.973 68.2861 210.174 68.5699 210.446 68.7858C210.718 69.0016 211.064 69.1095 211.485 69.1095Z" fill="#2C3E66"/>
<path d="M206.908 61.3867L207.388 61.9623C207.201 62.1435 206.985 62.2701 206.74 62.3421C206.495 62.414 206.218 62.458 205.909 62.474C205.6 62.49 205.256 62.5059 204.878 62.5219C204.451 62.5379 204.098 62.6418 203.818 62.8337C203.538 63.0256 203.323 63.3027 203.171 63.6651C203.019 64.0275 202.922 64.4726 202.879 65.0002H202.959C203.167 64.6165 203.455 64.334 203.822 64.1528C204.19 63.9716 204.584 63.881 205.005 63.881C205.485 63.881 205.917 63.9929 206.301 64.2167C206.684 64.4406 206.988 64.7724 207.212 65.2121C207.436 65.6517 207.548 66.194 207.548 66.8389C207.548 67.4811 207.433 68.0354 207.204 68.5018C206.977 68.9681 206.659 69.3279 206.249 69.581C205.841 69.8315 205.363 69.9568 204.814 69.9568C204.265 69.9568 203.784 69.8275 203.371 69.569C202.958 69.3079 202.636 68.9215 202.407 68.4098C202.178 67.8955 202.063 67.26 202.063 66.5032V65.8476C202.063 64.4806 202.295 63.444 202.759 62.7378C203.225 62.0316 203.926 61.6665 204.862 61.6425C205.192 61.6319 205.486 61.6292 205.745 61.6345C206.003 61.6399 206.229 61.6279 206.42 61.5986C206.612 61.5693 206.775 61.4986 206.908 61.3867ZM204.814 69.1093C205.184 69.1093 205.502 69.0161 205.769 68.8295C206.038 68.643 206.245 68.3805 206.388 68.0421C206.532 67.701 206.604 67.2999 206.604 66.8389C206.604 66.3912 206.531 66.0102 206.384 65.6957C206.241 65.3813 206.034 65.1414 205.765 64.9762C205.496 64.811 205.173 64.7284 204.798 64.7284C204.523 64.7284 204.277 64.775 204.058 64.8683C203.84 64.9616 203.653 65.0988 203.498 65.28C203.344 65.4612 203.224 65.6824 203.139 65.9435C203.056 66.2047 203.012 66.5032 203.007 66.8389C203.007 67.5264 203.168 68.0767 203.49 68.4898C203.813 68.9028 204.254 69.1093 204.814 69.1093Z" fill="#2C3E66"/>
<path d="M197.816 69.9729C197.427 69.9729 197.074 69.8997 196.757 69.7531C196.44 69.6039 196.188 69.3894 196.001 69.1095C195.815 68.8271 195.722 68.486 195.722 68.0863C195.722 67.7345 195.791 67.4494 195.93 67.2309C196.068 67.0097 196.253 66.8365 196.485 66.7112C196.717 66.586 196.973 66.4927 197.253 66.4314C197.535 66.3675 197.819 66.3168 198.104 66.2795C198.477 66.2315 198.78 66.1956 199.011 66.1716C199.246 66.1449 199.416 66.101 199.523 66.0397C199.632 65.9784 199.687 65.8718 199.687 65.7199V65.6879C199.687 65.2935 199.579 64.9871 199.363 64.7686C199.15 64.5501 198.826 64.4408 198.392 64.4408C197.941 64.4408 197.588 64.5394 197.333 64.7366C197.077 64.9338 196.897 65.1443 196.793 65.3681L195.898 65.0484C196.057 64.6753 196.271 64.3848 196.537 64.177C196.806 63.9665 197.099 63.8199 197.416 63.7373C197.736 63.652 198.051 63.6094 198.36 63.6094C198.557 63.6094 198.784 63.6334 199.039 63.6813C199.298 63.7266 199.547 63.8212 199.787 63.9651C200.029 64.109 200.231 64.3262 200.39 64.6167C200.55 64.9071 200.63 65.2962 200.63 65.7839V69.829H199.687V68.9976H199.639C199.575 69.1309 199.468 69.2734 199.319 69.4253C199.17 69.5772 198.971 69.7065 198.724 69.8131C198.476 69.9196 198.173 69.9729 197.816 69.9729ZM197.96 69.1255C198.333 69.1255 198.648 69.0523 198.903 68.9057C199.162 68.7591 199.356 68.5699 199.487 68.3381C199.62 68.1062 199.687 67.8624 199.687 67.6066V66.7432C199.647 66.7912 199.559 66.8351 199.423 66.8751C199.29 66.9124 199.135 66.9457 198.959 66.975C198.786 67.0017 198.617 67.0257 198.452 67.047C198.289 67.0656 198.157 67.0816 198.056 67.0949C197.811 67.1269 197.582 67.1789 197.369 67.2508C197.158 67.3201 196.987 67.4254 196.857 67.5666C196.729 67.7052 196.665 67.8944 196.665 68.1342C196.665 68.462 196.786 68.7098 197.029 68.8777C197.274 69.0429 197.584 69.1255 197.96 69.1255Z" fill="#2C3E66"/>
<path d="M188.826 69.8282V68.9488H189.05C189.234 68.9488 189.387 68.9128 189.51 68.8409C189.632 68.7663 189.731 68.637 189.805 68.4532C189.883 68.2666 189.941 68.0081 189.981 67.6777C190.024 67.3446 190.055 66.9209 190.073 66.4066L190.185 63.6885H194.278V69.8282H193.335V64.5679H191.081L190.985 66.7583C190.963 67.262 190.918 67.7057 190.849 68.0894C190.782 68.4705 190.68 68.7903 190.541 69.0487C190.405 69.3072 190.224 69.5018 189.997 69.6323C189.771 69.7629 189.487 69.8282 189.146 69.8282H188.826Z" fill="#2C3E66"/>
<path d="M183.577 69.8282V64.5519H181.946C181.578 64.5519 181.289 64.6371 181.078 64.8077C180.868 64.9782 180.763 65.2127 180.763 65.5112C180.763 65.8043 180.857 66.0348 181.046 66.2027C181.238 66.3706 181.501 66.4546 181.834 66.4546H183.816V67.3339H181.834C181.418 67.3339 181.06 67.2607 180.759 67.1141C180.457 66.9675 180.226 66.7583 180.063 66.4865C179.9 66.2121 179.819 65.8869 179.819 65.5112C179.819 65.1328 179.904 64.8077 180.075 64.5359C180.246 64.2641 180.489 64.0549 180.806 63.9083C181.126 63.7618 181.506 63.6885 181.946 63.6885H184.472V69.8282H183.577ZM179.483 69.8282L181.226 66.7743H182.249L180.507 69.8282H179.483Z" fill="#2C3E66"/>
<path d="M175.347 69.9729C174.958 69.9729 174.605 69.8997 174.288 69.7531C173.971 69.6039 173.719 69.3894 173.533 69.1095C173.346 68.8271 173.253 68.486 173.253 68.0863C173.253 67.7345 173.322 67.4494 173.461 67.2309C173.599 67.0097 173.785 66.8365 174.016 66.7112C174.248 66.586 174.504 66.4927 174.784 66.4314C175.066 66.3675 175.35 66.3168 175.635 66.2795C176.008 66.2315 176.311 66.1956 176.543 66.1716C176.777 66.1449 176.948 66.101 177.054 66.0397C177.164 65.9784 177.218 65.8718 177.218 65.7199V65.6879C177.218 65.2935 177.11 64.9871 176.894 64.7686C176.681 64.5501 176.357 64.4408 175.923 64.4408C175.473 64.4408 175.12 64.5394 174.864 64.7366C174.608 64.9338 174.428 65.1443 174.324 65.3681L173.429 65.0484C173.589 64.6753 173.802 64.3848 174.068 64.177C174.338 63.9665 174.631 63.8199 174.948 63.7373C175.268 63.652 175.582 63.6094 175.891 63.6094C176.088 63.6094 176.315 63.6334 176.571 63.6813C176.829 63.7266 177.078 63.8212 177.318 63.9651C177.561 64.109 177.762 64.3262 177.922 64.6167C178.082 64.9071 178.162 65.2962 178.162 65.7839V69.829H177.218V68.9976H177.17C177.106 69.1309 177 69.2734 176.85 69.4253C176.701 69.5772 176.503 69.7065 176.255 69.8131C176.007 69.9196 175.705 69.9729 175.347 69.9729ZM175.491 69.1255C175.864 69.1255 176.179 69.0523 176.435 68.9057C176.693 68.7591 176.888 68.5699 177.018 68.3381C177.152 68.1062 177.218 67.8624 177.218 67.6066V66.7432C177.178 66.7912 177.09 66.8351 176.954 66.8751C176.821 66.9124 176.667 66.9457 176.491 66.975C176.317 67.0017 176.148 67.0257 175.983 67.047C175.82 67.0656 175.689 67.0816 175.587 67.0949C175.342 67.1269 175.113 67.1789 174.9 67.2508C174.689 67.3201 174.519 67.4254 174.388 67.5666C174.26 67.7052 174.196 67.8944 174.196 68.1342C174.196 68.462 174.318 68.7098 174.56 68.8777C174.805 69.0429 175.116 69.1255 175.491 69.1255Z" fill="#2C3E66"/>
<path d="M171.098 66.3266V67.206H167.709V66.3266H171.098ZM167.933 63.6885V69.8282H166.989V63.6885H167.933ZM171.818 63.6885V69.8282H170.875V63.6885H171.818Z" fill="#2C3E66"/>
<path d="M161.572 65.9109H163.331C164.051 65.9109 164.601 66.0935 164.982 66.4585C165.363 66.8236 165.553 67.286 165.553 67.8456C165.553 68.2133 165.468 68.5478 165.298 68.8489C165.127 69.1473 164.877 69.3858 164.546 69.5644C164.216 69.7403 163.811 69.8282 163.331 69.8282H160.757V63.6885H161.7V68.9488H163.331C163.704 68.9488 164.011 68.8502 164.25 68.653C164.49 68.4558 164.61 68.2027 164.61 67.8935C164.61 67.5684 164.49 67.3033 164.25 67.0981C164.011 66.8929 163.704 66.7903 163.331 66.7903H161.572V65.9109Z" fill="#2C3E66"/>
<path d="M153.573 69.8282V68.9488H153.797C153.981 68.9488 154.134 68.9128 154.257 68.8409C154.379 68.7663 154.478 68.637 154.553 68.4532C154.63 68.2666 154.688 68.0081 154.728 67.6777C154.771 67.3446 154.802 66.9209 154.82 66.4066L154.932 63.6885H159.025V69.8282H158.082V64.5679H155.828L155.732 66.7583C155.71 67.262 155.665 67.7057 155.596 68.0894C155.529 68.4705 155.427 68.7903 155.288 69.0487C155.152 69.3072 154.971 69.5018 154.744 69.6323C154.518 69.7629 154.234 69.8282 153.893 69.8282H153.573Z" fill="#2C3E66"/>
<path d="M150.14 69.957C149.549 69.957 149.038 69.8264 148.609 69.5652C148.183 69.3014 147.854 68.9337 147.622 68.462C147.393 67.9877 147.278 67.436 147.278 66.8071C147.278 66.1783 147.393 65.624 147.622 65.1443C147.854 64.662 148.176 64.2862 148.589 64.0171C149.005 63.7453 149.49 63.6094 150.044 63.6094C150.364 63.6094 150.68 63.6627 150.992 63.7693C151.304 63.8759 151.587 64.0491 151.843 64.2889C152.099 64.5261 152.303 64.8405 152.455 65.2322C152.607 65.624 152.683 66.1063 152.683 66.6792V67.079H147.95V66.2635H151.723C151.723 65.9171 151.654 65.608 151.515 65.3362C151.379 65.0644 151.185 64.8498 150.932 64.6926C150.681 64.5354 150.385 64.4568 150.044 64.4568C149.669 64.4568 149.344 64.5501 149.069 64.7366C148.797 64.9205 148.588 65.1603 148.442 65.4561C148.295 65.7519 148.222 66.069 148.222 66.4074V66.951C148.222 67.4147 148.302 67.8078 148.461 68.1302C148.624 68.45 148.849 68.6938 149.137 68.8617C149.425 69.0269 149.759 69.1095 150.14 69.1095C150.388 69.1095 150.612 69.0749 150.812 69.0056C151.014 68.9337 151.189 68.8271 151.335 68.6858C151.482 68.5419 151.595 68.3634 151.675 68.1502L152.587 68.406C152.491 68.7152 152.329 68.987 152.103 69.2215C151.876 69.4533 151.597 69.6345 151.264 69.7651C150.93 69.893 150.556 69.957 150.14 69.957Z" fill="#2C3E66"/>
<path d="M141.52 64.5679V63.6885H146.508V64.5679H144.493V69.8282H143.55V64.5679H141.52Z" fill="#2C3E66"/>
<path d="M137.819 69.9729C137.43 69.9729 137.077 69.8997 136.76 69.7531C136.443 69.6039 136.191 69.3894 136.004 69.1095C135.818 68.8271 135.725 68.486 135.725 68.0863C135.725 67.7345 135.794 67.4494 135.932 67.2309C136.071 67.0097 136.256 66.8365 136.488 66.7112C136.72 66.586 136.976 66.4927 137.256 66.4314C137.538 66.3675 137.822 66.3168 138.107 66.2795C138.48 66.2315 138.782 66.1956 139.014 66.1716C139.249 66.1449 139.419 66.101 139.526 66.0397C139.635 65.9784 139.69 65.8718 139.69 65.7199V65.6879C139.69 65.2935 139.582 64.9871 139.366 64.7686C139.153 64.5501 138.829 64.4408 138.395 64.4408C137.944 64.4408 137.591 64.5394 137.335 64.7366C137.08 64.9338 136.9 65.1443 136.796 65.3681L135.9 65.0484C136.06 64.6753 136.274 64.3848 136.54 64.177C136.809 63.9665 137.102 63.8199 137.419 63.7373C137.739 63.652 138.054 63.6094 138.363 63.6094C138.56 63.6094 138.786 63.6334 139.042 63.6813C139.301 63.7266 139.55 63.8212 139.79 63.9651C140.032 64.109 140.233 64.3262 140.393 64.6167C140.553 64.9071 140.633 65.2962 140.633 65.7839V69.829H139.69V68.9976H139.642C139.578 69.1309 139.471 69.2734 139.322 69.4253C139.173 69.5772 138.974 69.7065 138.727 69.8131C138.479 69.9196 138.176 69.9729 137.819 69.9729ZM137.963 69.1255C138.336 69.1255 138.651 69.0523 138.906 68.9057C139.165 68.7591 139.359 68.5699 139.49 68.3381C139.623 68.1062 139.69 67.8624 139.69 67.6066V66.7432C139.65 66.7912 139.562 66.8351 139.426 66.8751C139.293 66.9124 139.138 66.9457 138.962 66.975C138.789 67.0017 138.62 67.0257 138.455 67.047C138.292 67.0656 138.16 67.0816 138.059 67.0949C137.814 67.1269 137.585 67.1789 137.371 67.2508C137.161 67.3201 136.99 67.4254 136.86 67.5666C136.732 67.7052 136.668 67.8944 136.668 68.1342C136.668 68.462 136.789 68.7098 137.032 68.8777C137.277 69.0429 137.587 69.1255 137.963 69.1255Z" fill="#2C3E66"/>
<path d="M129.967 64.5679V63.6885H134.955V64.5679H132.941V69.8282H131.997V64.5679H129.967Z" fill="#2C3E66"/>
<path d="M122.692 65.9109H124.451C125.171 65.9109 125.721 66.0935 126.102 66.4585C126.483 66.8236 126.674 67.286 126.674 67.8456C126.674 68.2133 126.588 68.5478 126.418 68.8489C126.247 69.1473 125.997 69.3858 125.666 69.5644C125.336 69.7403 124.931 69.8282 124.451 69.8282H121.877V63.6885H122.82V68.9488H124.451C124.824 68.9488 125.131 68.8502 125.371 68.653C125.61 68.4558 125.73 68.2027 125.73 67.8935C125.73 67.5684 125.61 67.3033 125.371 67.0981C125.131 66.8929 124.824 66.7903 124.451 66.7903H122.692V65.9109ZM127.649 69.8282V63.6885H128.592V69.8282H127.649Z" fill="#2C3E66"/>
<path d="M115.325 69.8282V63.6885H120.154V69.8282H119.21V64.5679H116.269V69.8282H115.325Z" fill="#2C3E66"/>
<path d="M111.532 69.957C110.956 69.957 110.461 69.8211 110.045 69.5492C109.629 69.2774 109.31 68.903 109.086 68.426C108.862 67.949 108.75 67.4041 108.75 66.7912C108.75 66.1676 108.865 65.6173 109.094 65.1403C109.326 64.6606 109.648 64.2862 110.061 64.0171C110.477 63.7453 110.962 63.6094 111.516 63.6094C111.948 63.6094 112.337 63.6893 112.683 63.8492C113.03 64.0091 113.313 64.2329 113.535 64.5207C113.756 64.8085 113.893 65.1443 113.946 65.528H113.003C112.931 65.2482 112.771 65.0004 112.523 64.7846C112.278 64.566 111.948 64.4568 111.532 64.4568C111.164 64.4568 110.842 64.5527 110.565 64.7446C110.29 64.9338 110.076 65.2016 109.921 65.548C109.769 65.8918 109.693 66.2955 109.693 66.7592C109.693 67.2335 109.768 67.6466 109.917 67.9983C110.069 68.3501 110.282 68.6232 110.557 68.8177C110.834 69.0123 111.159 69.1095 111.532 69.1095C111.777 69.1095 112 69.0669 112.2 68.9816C112.399 68.8964 112.569 68.7738 112.707 68.6139C112.846 68.454 112.944 68.2621 113.003 68.0383H113.946C113.893 68.4007 113.761 68.7271 113.551 69.0176C113.343 69.3054 113.067 69.5346 112.723 69.7051C112.382 69.873 111.985 69.957 111.532 69.957Z" fill="#2C3E66"/>
<path d="M100.69 61.6426H101.666V68.0861H101.746L106.223 61.6426H107.182V69.8289H106.191V63.4014H106.111L101.65 69.8289H100.69V61.6426Z" fill="#2C3E66"/>
</svg>
