<svg width="220" height="63" viewBox="0 0 220 63" fill="none" xmlns="http://www.w3.org/2000/svg">
<path d="M84.7295 13.6691C84.7295 18.6892 88.1639 22.4543 93.6117 22.4543C96.7145 22.4543 98.941 21.1519 100.433 19.6127L98.3014 16.5817C97.1408 17.742 95.4828 18.6655 93.8012 18.6655C90.5325 18.6655 89.0166 16.0844 89.0166 13.5743C89.0166 11.1353 90.4141 8.74363 93.8012 8.74363C95.3171 8.74363 96.9514 9.52506 98.0409 10.4722L99.9594 7.34652C98.3014 5.71261 95.8855 4.95486 93.6117 4.95486C88.3771 4.95486 84.7295 8.74363 84.7295 13.6691Z" fill="#2C3D63"/>
<path d="M104.258 22.1701H108.355V13.4086H112.074V9.97497H100.562V13.4086H104.258V22.1701Z" fill="#2C3D63"/>
<path d="M113.794 26.9061H117.892V22.3358C117.892 21.7202 117.844 21.2939 117.844 21.2939H117.892C118.768 22.0517 119.858 22.4543 120.994 22.4543C124.239 22.4543 126.679 19.9442 126.679 16.0844C126.679 12.2956 124.5 9.69081 121.184 9.69081C119.715 9.69081 118.318 10.2592 117.489 11.3721H117.442C117.442 11.3721 117.489 10.9932 117.489 10.5907V9.97497H113.794V26.9061ZM117.773 16.1554C117.773 14.0479 118.934 13.1481 120.165 13.1481C121.587 13.1481 122.558 14.332 122.558 16.1554C122.558 18.0261 121.444 19.0681 120.165 19.0681C118.555 19.0681 117.773 17.6236 117.773 16.1554Z" fill="#2C3D63"/>
<path d="M128.096 16.108C128.096 19.9205 131.175 22.4543 135.012 22.4543C138.849 22.4543 141.928 19.9205 141.928 16.108C141.928 12.2719 138.849 9.69081 134.988 9.69081C131.175 9.69081 128.096 12.2719 128.096 16.108ZM132.241 16.108C132.241 14.261 133.52 13.1007 135.012 13.1007C136.504 13.1007 137.783 14.261 137.783 16.108C137.783 17.9314 136.504 19.0443 135.012 19.0443C133.52 19.0443 132.241 17.9314 132.241 16.108Z" fill="#2C3D63"/>
<path d="M149.948 9.12251C152.341 9.12251 154.425 7.82012 154.425 5.4995V5.23902H151.417V5.52318C151.417 6.49405 150.635 6.92029 149.948 6.92029C149.238 6.92029 148.48 6.49405 148.48 5.52318V5.23902H145.448V5.4995C145.448 7.82012 147.532 9.12251 149.948 9.12251ZM143.979 22.1701H147.958L151.346 16.8185C151.536 16.487 151.796 16.1081 152.009 15.6108H152.056C152.009 16.0844 152.009 16.558 152.009 16.8421V22.1701H155.87V9.97499H151.891L148.504 15.3503C148.29 15.7055 148.054 16.0607 147.84 16.558H147.793C147.816 16.2502 147.84 15.7766 147.84 15.3503V9.97499H143.979V22.1701Z" fill="#2C3D63"/>
<path d="M84.3271 41.8379C85.843 43.164 87.9511 44.4427 91.0066 44.4427C96.2648 44.4427 99.9598 40.7013 99.9598 35.6101C99.9598 30.8504 96.7148 26.9433 91.196 26.9433C88.6853 26.9433 86.222 27.7484 84.5877 29.4534L86.5062 32.5791C87.9274 31.3477 89.3486 30.6847 91.0302 30.6847C93.5172 30.6847 95.1042 32.1055 95.5542 34.0236H88.5432V37.3388H95.5305C95.0805 39.2095 93.5883 40.7013 91.0302 40.7013C89.2301 40.7013 87.5721 39.9435 86.3641 38.878L84.3271 41.8379Z" fill="#2C3D63"/>
<path d="M102.021 44.1585H106.118V39.6831H107.397L109.979 44.1585H114.645L110.571 37.8123V37.765L114.148 31.9634H109.695L107.279 36.2495H106.118V31.9634H102.021V44.1585Z" fill="#2C3D63"/>
<path d="M114.818 38.0491C114.818 41.4116 117.258 44.4427 121.616 44.4427C123.653 44.4427 125.643 43.6612 126.851 42.4299L125.359 39.5646C124.482 40.3224 123.203 41.0328 122.019 41.0328C119.958 41.0328 118.963 39.4462 118.963 38.0017C118.963 36.5573 119.934 35.0891 121.877 35.0891C122.943 35.0891 124.032 35.5864 124.743 36.2731L126.472 33.5263C125.264 32.2239 123.322 31.6792 121.616 31.6792C117.234 31.6792 114.818 34.7813 114.818 38.0491Z" fill="#2C3D63"/>
<path d="M128.574 44.1585H132.672V35.397H136.296V44.1585H140.394V31.9634H128.574V44.1585Z" fill="#2C3D63"/>
<path d="M142.46 38.0491C142.46 41.2933 144.805 44.4427 149.163 44.4427C151.034 44.4427 153.047 43.8033 154.374 42.6667L152.858 39.8014C151.863 40.4645 150.703 41.0328 149.495 41.0328C148.192 41.0328 146.96 40.346 146.652 38.8542H154.35C154.398 38.428 154.445 38.0017 154.445 37.5755C154.445 34.1893 152.408 31.6792 148.808 31.6792C144.876 31.6792 142.46 34.4735 142.46 38.0491ZM146.747 36.5099C146.96 35.5391 147.529 34.6866 148.713 34.6866C149.755 34.6866 150.395 35.5154 150.395 36.5099H146.747Z" fill="#2C3D63"/>
<path d="M156.585 48.8945H160.682V44.3243C160.682 43.7086 160.635 43.2824 160.635 43.2824H160.682C161.559 44.0401 162.648 44.4427 163.785 44.4427C167.03 44.4427 169.47 41.9326 169.47 38.0728C169.47 34.284 167.291 31.6792 163.975 31.6792C162.506 31.6792 161.109 32.2476 160.28 33.3605H160.233C160.233 33.3605 160.28 32.9816 160.28 32.5791V31.9634H156.585V48.8945ZM160.564 38.1438C160.564 36.0363 161.725 35.1365 162.956 35.1365C164.377 35.1365 165.348 36.3205 165.348 38.1438C165.348 40.0145 164.235 41.0565 162.956 41.0565C161.346 41.0565 160.564 39.612 160.564 38.1438Z" fill="#2C3D63"/>
<path d="M174.158 44.1585H178.256V35.397H181.974V31.9634H170.463V35.397H174.158V44.1585Z" fill="#2C3D63"/>
<path d="M183.694 44.1585H187.674L191.061 38.8069C191.25 38.4754 191.511 38.0965 191.724 37.5993H191.771C191.724 38.0728 191.724 38.5464 191.724 38.8306V44.1585H195.585V31.9634H191.606L188.218 37.3388C188.005 37.694 187.769 38.0491 187.556 38.5464H187.508C187.532 38.2386 187.556 37.765 187.556 37.3388V31.9634H183.694V44.1585Z" fill="#2C3D63"/>
<path d="M197.317 42.643C198.644 43.827 200.61 44.4427 202.41 44.4427C205.3 44.4427 207.455 43.1403 207.455 40.5592C207.455 39.1384 206.484 38.2859 205.56 37.8597V37.8123C206.294 37.4098 207.076 36.581 207.076 35.0655C207.076 32.958 205.087 31.6792 202.576 31.6792C200.349 31.6792 198.786 32.2712 197.649 33.0527L198.833 35.5864C200.113 34.8287 201.06 34.6629 201.723 34.6629C202.765 34.6629 203.002 35.1128 203.002 35.6338C203.002 36.3915 202.41 36.581 201.77 36.581H200.539V39.2805H202.031C203.144 39.2805 203.357 39.7067 203.357 40.2987C203.357 40.867 203.026 41.3643 201.889 41.3643C200.918 41.3643 199.71 40.7723 198.952 40.0856L197.317 42.643Z" fill="#2C3D63"/>
<path d="M208.655 40.725C208.655 42.8325 210.289 44.4427 212.634 44.4427C214.032 44.4427 215.453 43.8033 216.258 42.6667H216.306C216.306 42.6667 216.258 43.0219 216.258 43.4244V44.1585H220V36.652C220 33.5499 217.916 31.6792 214.553 31.6792C212.563 31.6792 210.431 32.4607 209.389 33.2658L210.81 36.1547C211.781 35.5154 212.989 34.9944 214.174 34.9944C215.074 34.9944 215.903 35.3259 215.903 36.3442V36.5573H215.548C212.54 36.5573 208.655 37.4571 208.655 40.725ZM212.705 40.346C212.705 39.2331 214.316 38.9016 215.572 38.9016H215.95V39.2331C215.95 40.2277 215.05 41.388 213.866 41.388C213.108 41.388 212.705 40.9144 212.705 40.346Z" fill="#2C3D63"/>
<path fill-rule="evenodd" clip-rule="evenodd" d="M45.8357 16.2498C38.7969 9.42215 28.2629 8.38788 20.0741 13.0305L12.5859 5.76701C24.9022 -2.82284 41.8814 -1.8483 52.964 8.90141C64.046 19.6512 65.537 36.5928 57.3256 49.1645L49.8378 41.9012C54.229 33.5748 52.8747 23.0775 45.8357 16.2498Z" fill="#FF6F5E"/>
<path fill-rule="evenodd" clip-rule="evenodd" d="M16.7106 46.2784C23.7495 53.1059 34.2835 54.1401 42.4723 49.4976L49.9606 56.761C37.6442 65.3512 20.6646 64.3762 9.58238 53.6267C-1.4999 42.8773 -2.99072 25.9354 5.2206 13.3637L12.7088 20.6272C8.31739 28.9533 9.6717 39.4507 16.7106 46.2784Z" fill="#FF6F5E"/>
<path fill-rule="evenodd" clip-rule="evenodd" d="M40.6893 21.8055C35.4589 16.6885 27.1073 16.8156 22.0353 22.0894C16.9632 27.3632 17.0913 35.7865 22.3216 40.9036C27.5518 46.0206 35.9034 45.8936 40.9756 40.6195C46.0474 35.3459 45.9193 26.9225 40.6893 21.8055ZM26.9224 36.0285C29.5739 38.6226 33.8029 38.5632 36.3682 35.8959C38.9335 33.2286 38.8637 28.9633 36.2122 26.3692C33.5606 23.7751 29.3316 23.8345 26.7663 26.5018C24.201 29.1691 24.2709 33.4343 26.9224 36.0285Z" fill="#2C3D63"/>
<path d="M219.24 59.3147V54.8329H217.854C217.542 54.8329 217.296 54.9053 217.117 55.0502C216.939 55.195 216.849 55.3942 216.849 55.6477C216.849 55.8967 216.93 56.0925 217.09 56.2351C217.253 56.3777 217.476 56.449 217.759 56.449H219.443V57.196H217.759C217.406 57.196 217.102 57.1338 216.846 57.0093C216.59 56.8848 216.393 56.7071 216.255 56.4762C216.117 56.243 216.048 55.9669 216.048 55.6477C216.048 55.3263 216.12 55.0502 216.265 54.8193C216.41 54.5884 216.617 54.4107 216.887 54.2862C217.158 54.1617 217.481 54.0995 217.854 54.0995H220V59.3147H219.24ZM215.763 59.3147L217.243 56.7207H218.112L216.632 59.3147H215.763Z" fill="#2C3E66"/>
<path d="M211.199 58.1331L213.711 54.0995H214.635V59.3147H213.834V55.281L211.335 59.3147H210.397V54.0995H211.199V58.1331Z" fill="#2C3E66"/>
<path d="M204.57 61.2704V54.0995H205.344V54.9279H205.44C205.498 54.8374 205.58 54.722 205.684 54.5816C205.79 54.439 205.942 54.3122 206.139 54.2013C206.338 54.0882 206.607 54.0316 206.947 54.0316C207.386 54.0316 207.773 54.1414 208.108 54.3609C208.443 54.5805 208.705 54.8917 208.893 55.2946C209.08 55.6975 209.174 56.1729 209.174 56.7207C209.174 57.273 209.08 57.7517 208.893 58.1569C208.705 58.5598 208.444 58.8722 208.112 59.094C207.779 59.3136 207.395 59.4233 206.961 59.4233C206.626 59.4233 206.357 59.3679 206.156 59.257C205.954 59.1438 205.799 59.0159 205.691 58.8733C205.582 58.7284 205.498 58.6085 205.44 58.5134H205.372V61.2704H204.57ZM205.358 56.7071C205.358 57.1009 205.416 57.4484 205.531 57.7494C205.647 58.0482 205.815 58.2825 206.037 58.4523C206.259 58.6198 206.531 58.7035 206.852 58.7035C207.187 58.7035 207.467 58.6153 207.691 58.4387C207.917 58.2599 208.087 58.0199 208.2 57.7189C208.315 57.4156 208.373 57.0783 208.373 56.7071C208.373 56.3404 208.316 56.0099 208.203 55.7156C208.092 55.4191 207.924 55.1848 207.697 55.0128C207.473 54.8385 207.192 54.7514 206.852 54.7514C206.526 54.7514 206.252 54.834 206.03 54.9992C205.808 55.1622 205.641 55.3908 205.528 55.6851C205.415 55.9771 205.358 56.3178 205.358 56.7071Z" fill="#2C3E66"/>
<path d="M200.984 59.4233C200.513 59.4233 200.1 59.3113 199.745 59.0872C199.392 58.8631 199.116 58.5496 198.916 58.1467C198.72 57.7438 198.621 57.273 198.621 56.7342C198.621 56.191 198.72 55.7168 198.916 55.3116C199.116 54.9064 199.392 54.5918 199.745 54.3677C200.1 54.1436 200.513 54.0316 200.984 54.0316C201.455 54.0316 201.867 54.1436 202.22 54.3677C202.576 54.5918 202.852 54.9064 203.049 55.3116C203.248 55.7168 203.347 56.191 203.347 56.7342C203.347 57.273 203.248 57.7438 203.049 58.1467C202.852 58.5496 202.576 58.8631 202.22 59.0872C201.867 59.3113 201.455 59.4233 200.984 59.4233ZM200.984 58.7035C201.342 58.7035 201.636 58.6119 201.867 58.4285C202.098 58.2452 202.269 58.0041 202.38 57.7053C202.491 57.4065 202.546 57.0828 202.546 56.7342C202.546 56.3857 202.491 56.0608 202.38 55.7598C202.269 55.4587 202.098 55.2154 201.867 55.0298C201.636 54.8442 201.342 54.7514 200.984 54.7514C200.627 54.7514 200.332 54.8442 200.101 55.0298C199.871 55.2154 199.7 55.4587 199.589 55.7598C199.478 56.0608 199.422 56.3857 199.422 56.7342C199.422 57.0828 199.478 57.4065 199.589 57.7053C199.7 58.0041 199.871 58.2452 200.101 58.4285C200.332 58.6119 200.627 58.7035 200.984 58.7035Z" fill="#2C3E66"/>
<path d="M193.73 54.8464V54.0995H197.968V54.8464H196.257V59.3147H195.455V54.8464H193.73Z" fill="#2C3E66"/>
<path d="M190.587 59.4369C190.256 59.4369 189.956 59.3747 189.687 59.2502C189.418 59.1234 189.204 58.9412 189.045 58.7035C188.887 58.4636 188.808 58.1739 188.808 57.8343C188.808 57.5355 188.866 57.2933 188.984 57.1077C189.102 56.9199 189.259 56.7727 189.456 56.6663C189.653 56.5599 189.87 56.4807 190.108 56.4287C190.348 56.3743 190.589 56.3313 190.831 56.2996C191.148 56.2589 191.405 56.2283 191.602 56.208C191.801 56.1853 191.946 56.148 192.037 56.0959C192.129 56.0439 192.176 55.9533 192.176 55.8243V55.7971C192.176 55.4621 192.084 55.2018 191.901 55.0162C191.72 54.8306 191.445 54.7378 191.076 54.7378C190.693 54.7378 190.393 54.8215 190.176 54.989C189.959 55.1566 189.806 55.3354 189.718 55.5255L188.957 55.2539C189.093 54.937 189.274 54.6903 189.5 54.5137C189.729 54.3349 189.978 54.2104 190.247 54.1402C190.519 54.0678 190.786 54.0316 191.049 54.0316C191.216 54.0316 191.408 54.0519 191.626 54.0927C191.845 54.1312 192.057 54.2115 192.261 54.3338C192.467 54.456 192.638 54.6405 192.773 54.8872C192.909 55.1339 192.977 55.4644 192.977 55.8786V59.3147H192.176V58.6085H192.135C192.081 58.7216 191.99 58.8427 191.863 58.9718C191.737 59.1008 191.568 59.2106 191.357 59.3011C191.147 59.3916 190.89 59.4369 190.587 59.4369ZM190.709 58.7171C191.026 58.7171 191.293 58.6549 191.51 58.5304C191.73 58.4059 191.895 58.2452 192.006 58.0482C192.119 57.8513 192.176 57.6442 192.176 57.4269V56.6935C192.142 56.7342 192.067 56.7716 191.952 56.8055C191.838 56.8372 191.707 56.8655 191.558 56.8904C191.411 56.9131 191.267 56.9334 191.127 56.9515C190.989 56.9674 190.877 56.981 190.79 56.9923C190.582 57.0194 190.388 57.0636 190.206 57.1247C190.028 57.1836 189.883 57.273 189.772 57.3929C189.663 57.5106 189.609 57.6714 189.609 57.8751C189.609 58.1535 189.712 58.364 189.918 58.5066C190.126 58.6469 190.39 58.7171 190.709 58.7171Z" fill="#2C3E66"/>
<path d="M183.226 61.2704V54.0995H184V54.9279H184.095C184.154 54.8374 184.235 54.722 184.339 54.5816C184.446 54.439 184.597 54.3122 184.794 54.2013C184.993 54.0882 185.263 54.0316 185.602 54.0316C186.041 54.0316 186.428 54.1414 186.764 54.3609C187.099 54.5805 187.36 54.8917 187.548 55.2946C187.736 55.6975 187.83 56.1729 187.83 56.7207C187.83 57.273 187.736 57.7517 187.548 58.1569C187.36 58.5598 187.1 58.8722 186.767 59.094C186.434 59.3136 186.05 59.4233 185.616 59.4233C185.281 59.4233 185.013 59.3679 184.811 59.257C184.61 59.1438 184.455 59.0159 184.346 58.8733C184.237 58.7284 184.154 58.6085 184.095 58.5134H184.027V61.2704H183.226ZM184.013 56.7071C184.013 57.1009 184.071 57.4484 184.186 57.7494C184.302 58.0482 184.471 58.2825 184.692 58.4523C184.914 58.6198 185.186 58.7035 185.507 58.7035C185.842 58.7035 186.122 58.6153 186.346 58.4387C186.572 58.2599 186.742 58.0199 186.855 57.7189C186.971 57.4156 187.028 57.0783 187.028 56.7071C187.028 56.3404 186.972 56.0099 186.859 55.7156C186.748 55.4191 186.579 55.1848 186.353 55.0128C186.129 54.8385 185.847 54.7514 185.507 54.7514C185.181 54.7514 184.907 54.834 184.686 54.9992C184.464 55.1622 184.296 55.3908 184.183 55.6851C184.07 55.9771 184.013 56.3178 184.013 56.7071Z" fill="#2C3E66"/>
<path d="M179.64 59.4233C179.169 59.4233 178.756 59.3113 178.4 59.0872C178.047 58.8631 177.771 58.5496 177.572 58.1467C177.375 57.7438 177.276 57.273 177.276 56.7342C177.276 56.191 177.375 55.7168 177.572 55.3116C177.771 54.9064 178.047 54.5918 178.4 54.3677C178.756 54.1436 179.169 54.0316 179.64 54.0316C180.11 54.0316 180.522 54.1436 180.875 54.3677C181.231 54.5918 181.507 54.9064 181.704 55.3116C181.903 55.7168 182.003 56.191 182.003 56.7342C182.003 57.273 181.903 57.7438 181.704 58.1467C181.507 58.5496 181.231 58.8631 180.875 59.0872C180.522 59.3113 180.11 59.4233 179.64 59.4233ZM179.64 58.7035C179.997 58.7035 180.291 58.6119 180.522 58.4285C180.753 58.2452 180.924 58.0041 181.035 57.7053C181.146 57.4065 181.201 57.0828 181.201 56.7342C181.201 56.3857 181.146 56.0608 181.035 55.7598C180.924 55.4587 180.753 55.2154 180.522 55.0298C180.291 54.8442 179.997 54.7514 179.64 54.7514C179.282 54.7514 178.988 54.8442 178.757 55.0298C178.526 55.2154 178.355 55.4587 178.244 55.7598C178.133 56.0608 178.078 56.3857 178.078 56.7342C178.078 57.0828 178.133 57.4065 178.244 57.7053C178.355 58.0041 178.526 58.2452 178.757 58.4285C178.988 58.6119 179.282 58.7035 179.64 58.7035Z" fill="#2C3E66"/>
<path d="M175.752 52.1438L176.159 52.6327C176.001 52.7866 175.817 52.8941 175.609 52.9552C175.401 53.0164 175.166 53.0537 174.903 53.0673C174.64 53.0809 174.348 53.0945 174.027 53.108C173.665 53.1216 173.365 53.2099 173.127 53.3729C172.89 53.5358 172.706 53.7713 172.577 54.0791C172.448 54.3869 172.366 54.765 172.329 55.2131H172.397C172.574 54.8872 172.818 54.6472 173.131 54.4933C173.443 54.3394 173.778 54.2624 174.136 54.2624C174.543 54.2624 174.91 54.3575 175.236 54.5477C175.562 54.7378 175.82 55.0196 176.01 55.3931C176.2 55.7666 176.295 56.2272 176.295 56.775C176.295 57.3205 176.198 57.7913 176.003 58.1874C175.811 58.5836 175.54 58.8891 175.192 59.1042C174.845 59.3169 174.439 59.4233 173.973 59.4233C173.506 59.4233 173.098 59.3135 172.747 59.094C172.396 58.8722 172.123 58.5439 171.929 58.1093C171.734 57.6725 171.637 57.1326 171.637 56.4898V55.9329C171.637 54.7717 171.834 53.8912 172.228 53.2914C172.624 52.6915 173.219 52.3814 174.013 52.3611C174.294 52.352 174.544 52.3497 174.764 52.3543C174.983 52.3588 175.175 52.3486 175.338 52.3237C175.501 52.2988 175.639 52.2388 175.752 52.1438ZM173.973 58.7035C174.287 58.7035 174.558 58.6243 174.784 58.4659C175.013 58.3074 175.188 58.0844 175.31 57.797C175.433 57.5072 175.494 57.1666 175.494 56.775C175.494 56.3947 175.432 56.071 175.307 55.8039C175.185 55.5368 175.009 55.3331 174.781 55.1928C174.552 55.0524 174.278 54.9823 173.959 54.9823C173.726 54.9823 173.517 55.0219 173.331 55.1011C173.145 55.1803 172.987 55.2969 172.856 55.4508C172.724 55.6047 172.622 55.7926 172.55 56.0144C172.48 56.2363 172.443 56.4898 172.438 56.775C172.438 57.359 172.575 57.8264 172.849 58.1772C173.123 58.5281 173.497 58.7035 173.973 58.7035Z" fill="#2C3E66"/>
<path d="M168.028 59.4369C167.698 59.4369 167.398 59.3747 167.128 59.2502C166.859 59.1234 166.645 58.9412 166.487 58.7035C166.328 58.4636 166.249 58.1739 166.249 57.8343C166.249 57.5355 166.308 57.2933 166.426 57.1077C166.543 56.9199 166.701 56.7727 166.898 56.6663C167.094 56.5599 167.312 56.4807 167.549 56.4287C167.789 56.3743 168.03 56.3313 168.273 56.2996C168.59 56.2589 168.846 56.2283 169.043 56.208C169.243 56.1853 169.387 56.148 169.478 56.0959C169.571 56.0439 169.617 55.9533 169.617 55.8243V55.7971C169.617 55.4621 169.526 55.2018 169.342 55.0162C169.161 54.8306 168.886 54.7378 168.517 54.7378C168.135 54.7378 167.835 54.8215 167.617 54.989C167.4 55.1566 167.247 55.3354 167.159 55.5255L166.398 55.2539C166.534 54.937 166.715 54.6903 166.942 54.5137C167.17 54.3349 167.419 54.2104 167.689 54.1402C167.96 54.0678 168.227 54.0316 168.49 54.0316C168.657 54.0316 168.85 54.0519 169.067 54.0927C169.287 54.1312 169.498 54.2115 169.702 54.3338C169.908 54.456 170.079 54.6405 170.215 54.8872C170.351 55.1339 170.418 55.4644 170.418 55.8786V59.3147H169.617V58.6085H169.576C169.522 58.7216 169.432 58.8427 169.305 58.9718C169.178 59.1008 169.009 59.2106 168.799 59.3011C168.588 59.3916 168.331 59.4369 168.028 59.4369ZM168.15 58.7171C168.467 58.7171 168.734 58.6549 168.952 58.5304C169.171 58.4059 169.336 58.2452 169.447 58.0482C169.561 57.8513 169.617 57.6442 169.617 57.4269V56.6935C169.583 56.7342 169.509 56.7716 169.393 56.8055C169.28 56.8372 169.149 56.8655 168.999 56.8904C168.852 56.9131 168.708 56.9334 168.568 56.9515C168.43 56.9674 168.318 56.981 168.232 56.9923C168.024 57.0194 167.829 57.0636 167.648 57.1247C167.469 57.1836 167.324 57.273 167.213 57.3929C167.105 57.5106 167.05 57.6714 167.05 57.8751C167.05 58.1535 167.153 58.364 167.359 58.5066C167.568 58.6469 167.831 58.7171 168.15 58.7171Z" fill="#2C3E66"/>
<path d="M160.393 59.3147V58.5677H160.583C160.739 58.5677 160.869 58.5372 160.973 58.476C161.077 58.4127 161.161 58.3029 161.224 58.1467C161.29 57.9882 161.34 57.7687 161.374 57.488C161.41 57.2051 161.436 56.8452 161.452 56.4083L161.547 54.0995H165.024V59.3147H164.222V54.8464H162.308L162.226 56.7071C162.208 57.1349 162.169 57.5118 162.111 57.8377C162.054 58.1614 161.967 58.433 161.849 58.6526C161.734 58.8722 161.58 59.0374 161.387 59.1483C161.195 59.2592 160.954 59.3147 160.664 59.3147H160.393Z" fill="#2C3E66"/>
<path d="M155.934 59.3147V54.8329H154.549C154.236 54.8329 153.991 54.9053 153.812 55.0502C153.633 55.195 153.544 55.3942 153.544 55.6477C153.544 55.8967 153.624 56.0925 153.785 56.2351C153.948 56.3777 154.171 56.449 154.453 56.449H156.138V57.196H154.453C154.1 57.196 153.796 57.1338 153.54 57.0093C153.284 56.8848 153.087 56.7071 152.949 56.4762C152.811 56.243 152.742 55.9669 152.742 55.6477C152.742 55.3263 152.815 55.0502 152.96 54.8193C153.104 54.5884 153.312 54.4107 153.581 54.2862C153.853 54.1617 154.175 54.0995 154.549 54.0995H156.694V59.3147H155.934ZM152.457 59.3147L153.937 56.7207H154.807L153.326 59.3147H152.457Z" fill="#2C3E66"/>
<path d="M148.943 59.4369C148.613 59.4369 148.313 59.3747 148.043 59.2502C147.774 59.1234 147.56 58.9412 147.402 58.7035C147.243 58.4636 147.164 58.1739 147.164 57.8343C147.164 57.5355 147.223 57.2933 147.341 57.1077C147.458 56.9199 147.616 56.7727 147.813 56.6663C148.009 56.5599 148.227 56.4807 148.464 56.4287C148.704 56.3743 148.945 56.3313 149.188 56.2996C149.505 56.2589 149.761 56.2283 149.958 56.208C150.158 56.1853 150.302 56.148 150.393 56.0959C150.486 56.0439 150.532 55.9533 150.532 55.8243V55.7971C150.532 55.4621 150.441 55.2018 150.257 55.0162C150.076 54.8306 149.801 54.7378 149.432 54.7378C149.05 54.7378 148.75 54.8215 148.532 54.989C148.315 55.1566 148.162 55.3354 148.074 55.5255L147.313 55.2539C147.449 54.937 147.63 54.6903 147.857 54.5137C148.085 54.3349 148.334 54.2104 148.604 54.1402C148.875 54.0678 149.142 54.0316 149.405 54.0316C149.572 54.0316 149.765 54.0519 149.982 54.0927C150.202 54.1312 150.413 54.2115 150.617 54.3338C150.823 54.456 150.994 54.6405 151.13 54.8872C151.266 55.1339 151.334 55.4644 151.334 55.8786V59.3147H150.532V58.6085H150.491C150.437 58.7216 150.347 58.8427 150.22 58.9718C150.093 59.1008 149.924 59.2106 149.714 59.3011C149.503 59.3916 149.247 59.4369 148.943 59.4369ZM149.065 58.7171C149.382 58.7171 149.649 58.6549 149.867 58.5304C150.086 58.4059 150.252 58.2452 150.362 58.0482C150.476 57.8513 150.532 57.6442 150.532 57.4269V56.6935C150.498 56.7342 150.424 56.7716 150.308 56.8055C150.195 56.8372 150.064 56.8655 149.914 56.8904C149.767 56.9131 149.623 56.9334 149.483 56.9515C149.345 56.9674 149.233 56.981 149.147 56.9923C148.939 57.0194 148.744 57.0636 148.563 57.1247C148.384 57.1836 148.239 57.273 148.128 57.3929C148.02 57.5106 147.965 57.6714 147.965 57.8751C147.965 58.1535 148.068 58.364 148.274 58.5066C148.483 58.6469 148.746 58.7171 149.065 58.7171Z" fill="#2C3E66"/>
<path d="M145.334 56.3404V57.0873H142.455V56.3404H145.334ZM142.645 54.0995V59.3147H141.844V54.0995H142.645ZM145.945 54.0995V59.3147H145.144V54.0995H145.945Z" fill="#2C3E66"/>
<path d="M137.242 55.9873H138.736C139.348 55.9873 139.815 56.1423 140.139 56.4524C140.462 56.7625 140.624 57.1553 140.624 57.6306C140.624 57.943 140.552 58.227 140.407 58.4828C140.262 58.7363 140.049 58.9389 139.769 59.0906C139.488 59.24 139.144 59.3147 138.736 59.3147H136.55V54.0995H137.351V58.5677H138.736C139.053 58.5677 139.314 58.484 139.517 58.3165C139.721 58.149 139.823 57.9339 139.823 57.6713C139.823 57.3952 139.721 57.17 139.517 56.9957C139.314 56.8214 139.053 56.7342 138.736 56.7342H137.242V55.9873Z" fill="#2C3E66"/>
<path d="M130.448 59.3147V58.5677H130.638C130.795 58.5677 130.925 58.5372 131.029 58.476C131.133 58.4127 131.217 58.3029 131.28 58.1467C131.346 57.9882 131.396 57.7687 131.429 57.488C131.466 57.2051 131.492 56.8452 131.508 56.4083L131.603 54.0995H135.079V59.3147H134.278V54.8464H132.363L132.282 56.7071C132.264 57.1349 132.225 57.5118 132.166 57.8377C132.11 58.1614 132.023 58.433 131.905 58.6526C131.789 58.8722 131.635 59.0374 131.443 59.1483C131.251 59.2592 131.01 59.3147 130.72 59.3147H130.448Z" fill="#2C3E66"/>
<path d="M127.532 59.4233C127.029 59.4233 126.596 59.3124 126.231 59.0906C125.869 58.8665 125.59 58.5541 125.393 58.1535C125.198 57.7506 125.101 57.282 125.101 56.7478C125.101 56.2136 125.198 55.7428 125.393 55.3354C125.59 54.9257 125.863 54.6065 126.214 54.3779C126.567 54.147 126.979 54.0316 127.45 54.0316C127.722 54.0316 127.99 54.0768 128.255 54.1674C128.52 54.2579 128.761 54.4051 128.978 54.6088C129.195 54.8102 129.369 55.0773 129.498 55.4101C129.627 55.7428 129.691 56.1525 129.691 56.6392V56.9787H125.671V56.2861H128.876C128.876 55.9918 128.817 55.7292 128.7 55.4983C128.584 55.2675 128.419 55.0852 128.204 54.9517C127.991 54.8182 127.74 54.7514 127.45 54.7514C127.131 54.7514 126.855 54.8306 126.622 54.989C126.391 55.1452 126.213 55.349 126.089 55.6002C125.964 55.8515 125.902 56.1208 125.902 56.4083V56.8701C125.902 57.2639 125.97 57.5978 126.106 57.8717C126.244 58.1433 126.435 58.3504 126.679 58.493C126.924 58.6334 127.208 58.7035 127.532 58.7035C127.742 58.7035 127.932 58.6741 128.102 58.6153C128.274 58.5541 128.422 58.4636 128.547 58.3436C128.671 58.2214 128.768 58.0697 128.835 57.8887L129.61 58.106C129.528 58.3685 129.391 58.5994 129.199 58.7986C129.006 58.9955 128.769 59.1494 128.486 59.2604C128.203 59.369 127.885 59.4233 127.532 59.4233Z" fill="#2C3E66"/>
<path d="M120.21 54.8464V54.0995H124.447V54.8464H122.736V59.3147H121.935V54.8464H120.21Z" fill="#2C3E66"/>
<path d="M117.066 59.4369C116.736 59.4369 116.436 59.3747 116.166 59.2502C115.897 59.1234 115.683 58.9412 115.525 58.7035C115.366 58.4636 115.287 58.1739 115.287 57.8343C115.287 57.5355 115.346 57.2933 115.464 57.1077C115.581 56.9199 115.739 56.7727 115.936 56.6663C116.133 56.5599 116.35 56.4807 116.588 56.4287C116.827 56.3743 117.069 56.3313 117.311 56.2996C117.628 56.2589 117.885 56.2283 118.081 56.208C118.281 56.1853 118.426 56.148 118.516 56.0959C118.609 56.0439 118.655 55.9533 118.655 55.8243V55.7971C118.655 55.4621 118.564 55.2018 118.38 55.0162C118.199 54.8306 117.924 54.7378 117.555 54.7378C117.173 54.7378 116.873 54.8215 116.655 54.989C116.438 55.1566 116.285 55.3354 116.197 55.5255L115.437 55.2539C115.572 54.937 115.753 54.6903 115.98 54.5137C116.208 54.3349 116.457 54.2104 116.727 54.1402C116.998 54.0678 117.265 54.0316 117.528 54.0316C117.696 54.0316 117.888 54.0519 118.105 54.0927C118.325 54.1312 118.536 54.2115 118.74 54.3338C118.946 54.456 119.117 54.6405 119.253 54.8872C119.389 55.1339 119.457 55.4644 119.457 55.8786V59.3147H118.655V58.6085H118.615C118.56 58.7216 118.47 58.8427 118.343 58.9718C118.216 59.1008 118.048 59.2106 117.837 59.3011C117.626 59.3916 117.37 59.4369 117.066 59.4369ZM117.188 58.7171C117.505 58.7171 117.772 58.6549 117.99 58.5304C118.209 58.4059 118.375 58.2452 118.486 58.0482C118.599 57.8513 118.655 57.6442 118.655 57.4269V56.6935C118.621 56.7342 118.547 56.7716 118.431 56.8055C118.318 56.8372 118.187 56.8655 118.037 56.8904C117.89 56.9131 117.746 56.9334 117.606 56.9515C117.468 56.9674 117.356 56.981 117.27 56.9923C117.062 57.0194 116.867 57.0636 116.686 57.1247C116.507 57.1836 116.362 57.273 116.251 57.3929C116.143 57.5106 116.088 57.6714 116.088 57.8751C116.088 58.1535 116.191 58.364 116.397 58.5066C116.606 58.6469 116.869 58.7171 117.188 58.7171Z" fill="#2C3E66"/>
<path d="M110.396 54.8464V54.0995H114.634V54.8464H112.923V59.3147H112.121V54.8464H110.396Z" fill="#2C3E66"/>
<path d="M104.217 55.9873H105.711C106.322 55.9873 106.79 56.1423 107.113 56.4524C107.437 56.7625 107.599 57.1553 107.599 57.6306C107.599 57.943 107.526 58.227 107.381 58.4828C107.237 58.7363 107.024 58.9389 106.743 59.0906C106.462 59.24 106.118 59.3147 105.711 59.3147H103.524V54.0995H104.326V58.5677H105.711C106.028 58.5677 106.288 58.484 106.492 58.3165C106.696 58.149 106.798 57.9339 106.798 57.6713C106.798 57.3952 106.696 57.17 106.492 56.9957C106.288 56.8214 106.028 56.7342 105.711 56.7342H104.217V55.9873ZM108.427 59.3147V54.0995H109.229V59.3147H108.427Z" fill="#2C3E66"/>
<path d="M97.959 59.3147V54.0995H102.061V59.3147H101.259V54.8464H98.7603V59.3147H97.959Z" fill="#2C3E66"/>
<path d="M94.7372 59.4233C94.2482 59.4233 93.8272 59.3079 93.4741 59.077C93.121 58.8461 92.8494 58.5281 92.6592 58.1229C92.4691 57.7178 92.374 57.2549 92.374 56.7342C92.374 56.2046 92.4714 55.7372 92.666 55.332C92.8629 54.9245 93.1368 54.6065 93.4877 54.3779C93.8408 54.147 94.2528 54.0316 94.7236 54.0316C95.0903 54.0316 95.4208 54.0995 95.715 54.2353C96.0093 54.3711 96.2503 54.5612 96.4382 54.8057C96.6261 55.0502 96.7427 55.3354 96.7879 55.6613H95.9866C95.9255 55.4236 95.7897 55.2131 95.5792 55.0298C95.371 54.8442 95.0903 54.7514 94.7372 54.7514C94.4248 54.7514 94.1509 54.8329 93.9155 54.9958C93.6824 55.1566 93.5001 55.384 93.3689 55.6783C93.2398 55.9703 93.1753 56.3132 93.1753 56.7071C93.1753 57.11 93.2387 57.4608 93.3655 57.7596C93.4945 58.0584 93.6756 58.2904 93.9087 58.4557C94.1441 58.6209 94.4203 58.7035 94.7372 58.7035C94.9454 58.7035 95.1344 58.6673 95.3042 58.5949C95.474 58.5224 95.6177 58.4183 95.7354 58.2825C95.8531 58.1467 95.9368 57.9837 95.9866 57.7936H96.7879C96.7427 58.1014 96.6306 58.3787 96.4518 58.6254C96.2752 58.8699 96.041 59.0646 95.749 59.2094C95.4592 59.352 95.122 59.4233 94.7372 59.4233Z" fill="#2C3E66"/>
<path d="M85.5283 52.361H86.3568V57.8343H86.4247L90.2274 52.361H91.0423V59.3147H90.2003V53.855H90.1324L86.3432 59.3147H85.5283V52.361Z" fill="#2C3E66"/>
</svg>
