<svg width="137" height="38" viewBox="0 0 137 38" fill="none" xmlns="http://www.w3.org/2000/svg">
<g clip-path="url(#clip0_262_291)">
<path d="M36.2248 26.5084C40.3449 16.8682 35.9195 5.69205 26.3405 1.54571C16.7615 -2.60064 5.6562 1.85299 1.53616 11.4932C-2.58388 21.1333 1.8415 32.3095 11.4205 36.4559C20.9995 40.6022 32.1048 36.1486 36.2248 26.5084Z" fill="#888888"/>
<path fill-rule="evenodd" clip-rule="evenodd" d="M18.8812 5.93652C25.3723 5.93652 29.7748 10.963 29.7748 16.3879C29.7748 18.5666 29.3026 20.4639 28.202 22.84C21.7508 22.84 20.5703 27.1537 20.2978 30.0452L20.1017 32.0631H17.6643L17.4682 30.0452C17.1921 27.1537 16.0116 22.84 9.56405 22.84C8.46343 20.4639 7.99122 18.563 7.99122 16.3879C7.98396 10.963 12.3901 5.93652 18.8812 5.93652Z" fill="white"/>
<path fill-rule="evenodd" clip-rule="evenodd" d="M54.7514 5.93652C48.6163 5.93652 44.014 9.69814 44.054 16.227H49.7569C49.6769 13.6133 51.3297 11.08 54.7514 11.08C57.3486 11.08 59.0013 12.82 59.0013 15.039C59.0013 17.3347 57.1924 18.6032 54.2792 20.0252C50.4652 21.8859 48.184 22.756 44.054 24.1414V31.661H64.5081V26.5212H51.7619C53.7343 25.6951 55.6523 24.7848 57.3885 23.9477C61.9908 21.7324 64.7042 19.2356 64.7042 14.7648C64.7042 9.3801 60.6904 5.93652 54.7514 5.93652ZM73.5528 11.4784H85.3545V6.33498H68.046V31.6683H73.5528V11.4784ZM93.6146 6.33498H88.1078V31.6683H93.5746L103.84 15.4776V31.6683H109.347V6.33498H103.84L93.6146 22.5257V6.33498ZM137 22.1674H131.297C130.433 24.9786 127.796 26.9197 124.69 26.9197C120.167 26.9197 117.218 23.0009 117.218 19.0017C117.218 15.0024 120.091 11.0836 124.85 11.0836C127.995 11.0836 130.436 13.0247 131.301 15.8359H137.004C136.179 10.1734 131.733 5.94018 124.693 5.94018C116.906 5.94018 111.715 11.4419 111.715 19.0017C111.715 26.5614 116.906 32.0631 124.693 32.0631C131.729 32.0631 136.176 27.9067 137 22.1674Z" fill="#7B7B7B"/>
</g>
<defs>
<clipPath id="clip0_262_291">
<rect width="137" height="38" fill="white"/>
</clipPath>
</defs>
</svg>
